<?xml version="1.0" standalone="no"?>
<!DOCTYPE svg PUBLIC "-//W3C//DTD SVG 20010904//EN"
 "http://www.w3.org/TR/2001/REC-SVG-20010904/DTD/svg10.dtd">
<svg version="1.0" xmlns="http://www.w3.org/2000/svg"
 width="192.000000pt" height="192.000000pt" viewBox="0 0 192.000000 192.000000"
 preserveAspectRatio="xMidYMid meet">
<metadata>
Created by potrace 1.14, written by Peter Selinger 2001-2017
</metadata>
<g transform="translate(0.000000,192.000000) scale(0.100000,-0.100000)"
fill="#000000" stroke="none">
<path d="M480 1860 c0 -20 -5 -30 -15 -30 -12 0 -15 -17 -15 -90 0 -73 -3 -90
-15 -90 -8 0 -15 -7 -15 -15 0 -8 -7 -15 -15 -15 -8 0 -15 -7 -15 -15 0 -8 -7
-15 -15 -15 -8 0 -15 -7 -15 -15 0 -8 -7 -15 -15 -15 -10 0 -15 -10 -15 -30 0
-20 -5 -30 -15 -30 -10 0 -15 -10 -15 -30 0 -20 -5 -30 -15 -30 -13 0 -15 -28
-15 -195 0 -167 2 -195 15 -195 8 0 15 -7 15 -15 0 -8 7 -15 15 -15 12 0 15
-13 15 -60 0 -47 -3 -60 -15 -60 -8 0 -15 -7 -15 -15 0 -8 -7 -15 -15 -15 -8
0 -15 -7 -15 -15 0 -8 7 -15 15 -15 12 0 15 -13 15 -60 0 -47 -3 -60 -15 -60
-11 0 -15 -12 -15 -45 0 -33 -4 -45 -15 -45 -12 0 -15 -17 -15 -90 0 -73 -3
-90 -15 -90 -12 0 -15 -18 -15 -105 0 -87 -3 -105 -15 -105 -11 0 -15 -12 -15
-45 0 -33 -4 -45 -15 -45 -10 0 -15 -10 -15 -30 l0 -30 90 0 c73 0 90 -3 90
-15 0 -12 13 -15 60 -15 47 0 60 3 60 15 0 12 13 15 60 15 47 0 60 -3 60 -15
0 -8 7 -15 15 -15 8 0 15 -7 15 -15 0 -8 7 -15 15 -15 8 0 15 -7 15 -15 0 -10
10 -15 30 -15 20 0 30 5 30 15 0 8 7 15 15 15 8 0 15 7 15 15 0 8 7 15 15 15
8 0 15 7 15 15 0 13 28 15 195 15 167 0 195 -2 195 -15 0 -8 7 -15 15 -15 8 0
15 -7 15 -15 0 -8 7 -15 15 -15 8 0 15 -7 15 -15 0 -10 10 -15 30 -15 20 0 30
5 30 15 0 8 7 15 15 15 8 0 15 7 15 15 0 8 7 15 15 15 8 0 15 7 15 15 0 12 18
15 105 15 87 0 105 3 105 15 0 8 7 15 15 15 11 0 15 12 15 45 0 33 -4 45 -15
45 -10 0 -15 10 -15 30 0 20 -5 30 -15 30 -11 0 -15 12 -15 45 0 33 -4 45 -15
45 -10 0 -15 10 -15 30 0 20 5 30 15 30 10 0 15 10 15 30 0 20 -5 30 -15 30
-8 0 -15 7 -15 15 0 10 10 15 30 15 20 0 30 5 30 15 0 8 7 15 15 15 8 0 15 7
15 15 0 8 7 15 15 15 12 0 15 15 15 75 0 60 -3 75 -15 75 -8 0 -15 7 -15 15 0
8 -7 15 -15 15 -11 0 -15 12 -15 45 0 33 4 45 15 45 12 0 15 17 15 90 0 73 3
90 15 90 8 0 15 7 15 15 0 8 7 15 15 15 10 0 15 10 15 30 0 20 5 30 15 30 8 0
15 7 15 15 0 8 7 15 15 15 13 0 15 20 15 120 0 100 -2 120 -15 120 -10 0 -15
10 -15 30 0 20 -5 30 -15 30 -8 0 -15 7 -15 15 0 8 -7 15 -15 15 -8 0 -15 7
-15 15 0 8 -7 15 -15 15 -8 0 -15 7 -15 15 0 8 -7 15 -15 15 -8 0 -15 7 -15
15 0 10 -10 15 -30 15 -20 0 -30 5 -30 15 0 8 -7 15 -15 15 -8 0 -15 7 -15 15
0 8 -7 15 -15 15 -8 0 -15 7 -15 15 0 8 7 15 15 15 12 0 15 17 15 90 0 73 -3
90 -15 90 -8 0 -15 7 -15 15 0 10 -10 15 -30 15 -20 0 -30 5 -30 15 0 12 -15
15 -75 15 -60 0 -75 -3 -75 -15 0 -8 -7 -15 -15 -15 -8 0 -15 -7 -15 -15 0 -8
-7 -15 -15 -15 -8 0 -15 -7 -15 -15 0 -8 -7 -15 -15 -15 -8 0 -15 -7 -15 -15
0 -13 -25 -15 -165 -15 -140 0 -165 2 -165 15 0 8 -7 15 -15 15 -8 0 -15 7
-15 15 0 8 -7 15 -15 15 -8 0 -15 7 -15 15 0 8 -7 15 -15 15 -8 0 -15 7 -15
15 0 12 -18 15 -105 15 l-105 0 0 -30z"/>
</g>
</svg>
