<svg xmlns="http://www.w3.org/2000/svg" xml:space="preserve" fill-rule="evenodd" stroke-linecap="round" stroke-linejoin="round" stroke-miterlimit="1.5" clip-rule="evenodd" viewBox="0 0 144 144">
  <path fill="none" d="M0 0h144v144H0z"/>
  <path fill="#61e0ee" d="M38.958 41.456c-.205-1.229-2.719-3.108-3.764-3.533-12.709-5.177-8.254 9.398-.855 8.821"/>
  <path d="m30.638 35.314.057.001.058.001.057.002.058.002.058.002.059.003.058.003.059.004.059.004.06.004.059.005.06.005.06.006.061.006.06.007.061.006.061.008.062.007.061.008.062.009.062.009.063.009.062.01.063.01.063.01.064.011.064.011.064.012.064.012.065.012.064.013.066.014.065.013.066.014.066.015.066.015.067.015.067.016.067.016.067.017.068.017.068.017.068.018.069.018.069.019.069.019.069.019.07.02.07.02.071.021.071.021.071.022.071.022.072.022.072.023.072.023.073.024.073.024.073.024.074.025.074.026.074.026.074.026.075.027.076.027.075.027.076.028.076.029.077.029.077.029.077.03.078.03.078.031.078.031.078.031.082.033.037.015.039.017.039.017.039.018.039.017.037.018.038.018.039.019.039.019.038.02.039.02.038.02.039.021.038.02.039.021.039.022.039.022.04.023.038.022.04.023.04.024.039.023.04.024.041.025.039.025.041.025.04.025.042.027.081.052.082.053.083.056.083.056.084.058.084.059.084.06.083.061.044.032.042.031.043.031.042.033.042.032.043.032.043.033.042.033.042.033.043.034.042.033.043.034.042.035.042.034.043.035.041.034.043.036.041.035.042.035.042.037.042.036.042.036.04.036.042.037.042.037.04.037.041.038.041.038.04.037.04.038.041.039.04.038.039.038.04.039.039.039.039.039.039.04.039.04.038.04.038.04.038.041.038.04.037.04.036.041.038.042.036.042.036.041.035.042.037.043.034.042.035.043.035.044.033.043.034.044.034.044.033.045.032.045.032.045.032.046.031.046.031.046.031.048.03.048.03.048.028.048.029.05.028.05.028.051.027.052.026.051.026.054.025.054.024.055.024.056.023.058.021.055.021.06.021.061.019.061.016.057.009.035.009.034.008.034.007.031.008.035.006.034.006.032.005.025.012.083.007.083.003.084-.002.084-.007.084-.011.083-.017.082-.02.081-.025.08-.03.079-.034.076-.038.075-.043.072-.046.07-.05.067-.054.065-.057.061-.061.058-.064.054-.067.051-.069.046-.072.043-.075.039-.076.035-.078.03-.08.026-.081.021-.082.016-.083.012-.084.008-.084.002-.084-.002-.083-.006-.083-.012-.083-.016-.081-.02-.08-.026-.078-.029-.077-.034-.075-.038-.072-.043-.07-.046-.067-.05-.064-.054-.061-.058-.058-.06-.055-.064-.05-.067-.047-.07-.043-.072-.039-.074-.034-.076-.03-.079-.026-.079-.021-.082-.013-.062-.001-.002-.001-.003-.003-.006-.003-.008-.004-.008-.005-.01-.006-.012-.005-.011-.008-.013-.007-.014-.009-.014-.01-.018-.01-.016-.011-.017-.011-.017-.012-.019-.014-.02-.014-.02-.014-.021-.016-.022-.016-.021-.016-.021-.018-.023-.018-.024-.018-.023-.02-.024-.02-.025-.02-.023-.021-.025-.023-.026-.022-.025-.022-.025-.024-.026-.024-.027-.025-.027-.024-.026-.025-.027-.026-.027-.026-.026-.027-.028-.027-.027-.028-.027-.028-.028-.028-.027-.029-.028-.029-.027-.029-.028-.03-.028-.03-.027-.03-.028-.031-.028-.03-.028-.031-.027-.032-.028-.032-.028-.031-.027-.031-.027-.033-.027-.033-.028-.032-.027-.033-.027-.032-.027-.033-.027-.033-.026-.033-.027-.033-.026-.033-.026-.034-.026-.033-.026-.033-.026-.033-.025-.034-.026-.033-.024-.033-.025-.033-.025-.032-.023-.067-.049-.066-.047-.065-.045-.064-.045-.063-.043-.063-.042-.062-.04-.061-.04-.029-.018-.029-.018-.029-.018-.029-.018-.028-.017-.028-.017-.028-.016-.026-.016-.027-.015-.026-.016-.025-.014-.024-.013-.024-.014-.024-.013-.023-.012-.022-.012-.022-.011-.02-.011-.02-.01-.019-.009-.018-.009-.017-.008-.017-.008-.015-.007-.013-.006-.013-.006-.011-.004-.013-.006-.067-.027-.069-.028-.069-.027-.068-.027-.068-.026-.067-.026-.067-.026-.067-.025-.066-.024-.065-.025-.066-.024-.065-.023-.064-.023-.064-.022-.063-.022-.063-.022-.062-.021-.063-.021-.062-.02-.061-.02-.06-.02-.061-.019-.059-.019-.06-.018-.059-.018-.059-.017-.058-.017-.057-.017-.058-.016-.056-.016-.057-.016-.056-.015-.055-.015-.055-.014-.055-.014-.054-.013-.053-.014-.054-.012-.053-.013-.052-.012-.052-.012-.051-.011-.051-.011-.051-.01-.05-.011-.049-.009-.05-.01-.048-.009-.049-.009-.047-.008-.048-.009-.047-.007-.046-.008-.046-.007-.046-.007-.045-.006-.045-.006-.044-.006-.044-.005-.043-.006-.043-.004-.042-.005-.042-.004-.042-.004-.041-.004-.041-.003-.04-.003-.04-.003-.039-.002-.039-.002-.038-.002-.038-.002-.037-.001-.037-.001-.037-.001H30.468l-.034.001-.034.001-.032.001-.033.002-.032.002-.031.001-.032.003-.03.002-.03.002-.03.003-.029.003-.029.003-.029.004-.028.003-.027.004-.027.004-.027.004-.026.004-.026.005-.025.004-.025.005-.025.005-.024.005-.023.005-.023.005-.024.006-.022.005-.022.006-.022.006-.021.005-.02.006-.021.007-.02.006-.02.006-.019.006-.018.007-.019.007-.018.006-.018.007-.017.007-.017.007-.017.006-.016.008-.017.007-.016.007-.015.007-.014.007-.015.007-.014.008-.015.007-.013.007-.014.008-.013.008-.013.007-.013.008-.012.007-.012.008-.012.008-.012.007-.011.008-.011.008-.011.008-.011.008-.011.008-.01.007-.01.008-.01.008-.01.008-.009.008-.01.009-.009.008-.009.008-.009.009-.009.008-.008.007-.008.009-.009.009-.008.009-.008.008-.008.009-.008.009-.007.009-.008.008-.008.01-.007.009-.008.01-.007.009-.006.009-.008.01-.007.01-.006.009-.007.01-.007.011-.006.01-.007.009-.007.012-.006.01-.006.01-.006.012-.007.012-.006.01-.005.011-.006.012-.006.011-.005.012-.007.014-.005.011-.005.012-.006.013-.006.014-.005.013-.005.012-.005.013-.005.014-.005.014-.005.014-.005.015-.004.013-.005.015-.005.015-.004.014-.004.015-.004.016-.004.016-.004.016-.004.016-.004.017-.003.014-.004.017-.004.019-.003.017-.003.015-.003.018-.003.019-.003.018-.002.016-.003.018-.002.02-.003.019-.002.018-.002.019-.002.019-.001.019-.002.02-.001.021-.002.02-.001.019-.001.022-.001.02v.02l-.001.023V39.932l.001.023.001.023.001.022.001.022.001.024.002.023.001.023.002.024.002.022.002.023.002.024.003.025.003.025.003.024.002.024.004.023.003.027.004.025.003.022.004.025.005.027.004.024.004.026.005.026.005.025.005.026.005.025.005.026.006.026.006.028.006.026.006.025.006.026.006.027.007.026.007.027.007.026.007.027.008.028.007.027.008.026.008.028.008.027.008.027.009.028.008.026.009.027.01.029.009.028.009.027.01.028.01.027.009.027.011.029.01.027.011.029.01.028.011.027.011.029.011.027.012.029.012.029.011.027.012.027.012.029.013.029.012.027.012.028.013.028.013.029.013.028.014.028.013.029.014.027.014.029.014.028.014.029.015.028.014.027.015.029.015.028.015.029.014.027.016.028.016.029.015.027.016.028.016.029.016.028.016.027.017.028.017.028.016.028.017.028.017.027.017.028.018.028.017.027.018.028.018.028.018.027.018.027.019.027.018.028.019.027.019.027.018.027.02.028.019.027.019.026.019.027.02.026.02.027.02.027.02.026.02.026.02.027.021.026.02.026.021.026.021.027.021.025.02.025.022.026.022.026.021.026.022.025.021.025.022.025.022.026.023.025.022.025.022.024.022.024.023.025.023.025.022.024.023.023.023.024.024.025.023.024.023.023.024.024.023.023.024.024.024.023.023.022.025.024.024.022.025.023.024.022.024.022.025.023.024.022.025.022.025.021.025.022.025.022.025.021.025.021.026.021.025.021.025.02.026.021.026.02.025.02.027.021.025.02.026.019.026.019.027.02.026.019.026.019.026.019.027.019.027.019.026.018.027.018.027.018.026.018.027.017.027.018.028.018.027.017.027.017.027.016.027.017.028.016.027.016.027.016.028.016.028.016.027.015.028.016.028.015.027.015.029.015.028.014.028.014.028.014.028.014.028.014.028.014.028.013.029.013.028.013.029.013.028.013.029.012.028.012.029.012.028.012.029.011.029.012.029.011.029.011.028.01.029.011.029.01.029.01.029.01.029.01.029.009.029.01.03.009.029.009.029.008.029.008.03.009.029.008.03.008.029.007.03.007.029.008.03.006.03.007.029.007.03.006.03.006.03.006.029.006.03.005.03.005.03.005.03.005.03.004.03.005.03.004.031.003.03.004.03.003.03.004.031.003.03.002.031.003.03.002.031.002.03.002.031.001.031.002.031.001.03.001h.031l.031.001h.062l.032-.001h.031l.031-.001.031-.001.032-.002.031-.001.032-.002.031-.002.038-.003.083-.004.084.001.084.006.083.01.083.015.081.019.081.024.078.029.078.033.075.037.073.041.07.045.068.05.065.053.062.056.059.06.055.063.052.066.048.069.043.072.04.073.036.076.031.078.027.079.022.081.018.082.013.083.009.083.004.084-.001.084-.006.084-.01.083-.015.082-.019.082-.024.08-.029.079-.033.077-.037.076-.041.073-.045.07-.05.068-.053.065-.056.062-.06.059-.063.055-.066.051-.069.048-.072.044-.073.04-.076.036-.078.031-.079.027-.081.022-.082.018-.083.013-.083.009-.05.003-.055.004-.054.003-.055.003-.055.002-.054.002-.055.002-.055.001h-.054l-.054.001-.054-.001h-.054l-.055-.001-.054-.002-.053-.002-.054-.002-.054-.003-.053-.003-.054-.003-.053-.004-.053-.005-.053-.004-.053-.005-.053-.006-.053-.006-.053-.006-.052-.007-.053-.007-.052-.007-.052-.008-.052-.008-.052-.009-.051-.009-.052-.009-.052-.01-.051-.01-.051-.01-.051-.011-.051-.011-.051-.012-.05-.012-.051-.012-.05-.012-.05-.013-.05-.013-.05-.014-.05-.014-.05-.014-.049-.015-.049-.015-.049-.015-.049-.015-.049-.016-.048-.016-.049-.017-.048-.017-.048-.017-.048-.017-.048-.018-.048-.018-.047-.019-.047-.018-.048-.019-.047-.019-.046-.02-.047-.02-.046-.02-.047-.02-.046-.021-.045-.021-.046-.021-.046-.022-.045-.021-.045-.022-.045-.023-.045-.022-.045-.023-.045-.023-.043-.023-.045-.024-.044-.024-.043-.024-.044-.025-.044-.024-.043-.025-.043-.025-.043-.026-.042-.025-.043-.026-.042-.026-.043-.026-.041-.027-.042-.026-.041-.027-.042-.028-.041-.027-.041-.028-.041-.027-.041-.028-.04-.029-.04-.028-.04-.029-.04-.029-.04-.029-.039-.029-.04-.03-.039-.029-.039-.03-.039-.03-.038-.031-.039-.03-.038-.03-.038-.031-.038-.031-.038-.032-.037-.031-.037-.032-.037-.031-.037-.032-.037-.032-.036-.033-.037-.032-.035-.032-.037-.034-.035-.033-.036-.033-.035-.033-.035-.033-.035-.034-.035-.034-.035-.034-.034-.034-.034-.034-.035-.035-.033-.034-.033-.034-.033-.035-.034-.035-.034-.036-.032-.035-.032-.034-.033-.036-.033-.037-.032-.035-.031-.036-.032-.036-.031-.036-.032-.036-.031-.037-.031-.037-.03-.036-.03-.036-.031-.038-.03-.037-.03-.037-.029-.037-.03-.038-.03-.038-.028-.037-.029-.038-.029-.038-.028-.038-.028-.037-.029-.039-.028-.039-.028-.038-.027-.039-.027-.038-.027-.039-.027-.039-.026-.038-.027-.04-.026-.039-.026-.039-.026-.04-.025-.038-.026-.04-.025-.04-.025-.039-.025-.04-.025-.04-.024-.04-.024-.04-.024-.04-.024-.041-.023-.04-.024-.04-.023-.041-.023-.04-.023-.042-.021-.039-.023-.041-.022-.041-.022-.041-.021-.041-.022-.041-.021-.042-.021-.04-.021-.041-.02-.041-.02-.041-.021-.043-.019-.041-.02-.041-.02-.042-.019-.042-.018-.041-.019-.042-.019-.043-.018-.041-.018-.042-.018-.042-.018-.043-.017-.041-.017-.042-.017-.043-.017-.041-.016-.043-.017-.043-.015-.042-.016-.043-.015-.041-.016-.043-.015-.043-.015-.043-.015-.043-.014-.042-.013-.042-.014-.043-.015-.045-.013-.041-.013-.044-.013-.043-.012-.042-.013-.044-.012-.043-.011-.042-.012-.043-.012-.044-.011-.043-.011-.043-.01-.043-.01-.044-.011-.044-.01-.044-.009-.042-.009-.043-.009-.043-.009-.045-.009-.043-.008-.043-.008-.044-.007-.043-.008-.045-.007-.041-.007-.044-.007-.046-.006-.043-.006-.042-.005-.045-.006-.044-.005-.044-.005-.043-.004-.043-.005-.043-.004-.045-.003-.045-.004-.043-.003-.044-.002-.043-.003-.043-.002-.045-.002-.045-.001-.043-.002-.043-.001-.046v-.175l.001-.044.001-.043.001-.044.002-.044.002-.043.003-.044.003-.044.003-.043.003-.044.004-.044.004-.044.005-.044.005-.044.005-.044.006-.042.006-.044.007-.046.006-.043.007-.042.008-.044.008-.045.009-.044.008-.041.009-.043.01-.045.01-.044.011-.043.011-.043.011-.042.011-.043.012-.043.013-.044.013-.043.014-.042.014-.044.014-.042.015-.042.015-.042.015-.042.017-.043.017-.043.017-.041.017-.042.018-.041.018-.042.02-.042.018-.04.02-.041.021-.042.02-.04.022-.042.022-.041.022-.039.022-.039.024-.041.024-.04.024-.039.024-.039.026-.04.025-.038.026-.039.027-.038.028-.039.027-.036.028-.038.028-.038.03-.037.029-.037.03-.035.03-.036.031-.036.032-.036.032-.035.032-.035.033-.034.032-.034.034-.033.035-.035.034-.033.035-.032.036-.032.036-.032.036-.032.037-.031.037-.03.037-.031.038-.029.039-.03.038-.029.039-.029.04-.028.039-.028.041-.027.041-.027.041-.026.042-.027.041-.025.042-.025.043-.025.042-.024.043-.024.044-.024.043-.022.044-.023.045-.022.045-.021.045-.022.045-.02.046-.02.045-.02.047-.019.046-.019.047-.018.047-.018.047-.017.048-.017.047-.017.049-.016.048-.015.048-.015.049-.015.05-.014.049-.014.049-.013.05-.013.05-.012.05-.012.051-.012.051-.011.051-.01.051-.011.051-.009.052-.01.052-.008.052-.009.053-.008.052-.007.053-.008.053-.006.053-.006.054-.006.054-.006.054-.005.054-.004.054-.005.055-.003.055-.004.055-.002.055-.003.056-.002.056-.002.056-.001.056-.001h.17Z"/>
  <path fill="#d6c295" stroke="#000" stroke-width="2.24" d="M109.172 81.867s8.492 7.2 7.595 13.855c-.896 6.655-6.678 7.227-7.958 2.263-1.28-4.965-2.913-9.52-6.574-11.4-3.662-1.88 1.623-9.313 6.937-4.718Z"/>
  <path fill="none" stroke="#61e0ee" stroke-width="2.24" d="M84.542 7.986s-5.213-5.43-7.168 7.82M66.513 6.683s4.996-5.213 6.734 8.472M80.127 2.287s-5.866-3.739-4.784 11.38"/>
  <path fill="#d6c295" stroke="#000" stroke-width="2.24" d="M97.704 136.299s-.607-11.117-6.452-14.423c-5.845-3.306-9.795.956-6.612 4.975 3.184 4.019 5.827 8.073 5.114 12.126-.714 4.053 8.402 4.333 7.95-2.678ZM47.417 137.592s5.884-9.451 2.996-15.514c-2.888-6.062-8.568-4.84-8.269.278.299 5.118.137 9.955-2.775 12.864-2.911 2.909 4.392 8.371 8.048 2.372Z"/>
  <path fill="#61e0ee" d="M107.819 31.88c1.166.437 2.423-.298 3.314-.99 10.838-8.419-3.974-11.791-7.173-5.095"/>
  <path d="M110.341 20.748h.093l.046.001.047.001.046.001.046.002.046.001.046.002.046.002.046.002.046.003.046.002.046.003.046.004.046.003.045.003.046.004.046.004.045.005.046.004.045.005.045.005.046.005.045.005.045.006.045.006.045.006.045.006.045.006.045.007.045.007.044.007.045.008.044.007.045.008.044.008.044.009.044.008.044.009.044.009.044.009.044.01.044.009.044.01.043.01.043.011.044.01.043.011.043.011.043.012.043.011.043.012.043.012.043.012.042.013.042.012.043.013.042.014.042.013.043.014.042.014.041.014.042.014.041.015.042.015.042.015.041.016.041.015.041.016.041.016.04.017.041.017.04.016.041.018.04.017.04.018.041.018.039.018.039.019.04.019.04.019.039.019.039.02.039.02.039.02.039.02.039.021.038.021.038.021.038.022.038.022.038.022.037.022.037.023.037.023.038.023.037.024.037.024.036.024.036.024.036.025.036.025.036.026.037.026.034.025.035.026.036.028.034.027.034.026.036.029.033.027.033.028.035.03.034.029.032.028.033.03.033.03.032.03.032.031.032.03.032.031.032.033.031.031.03.032.031.034.03.032.03.033.03.034.03.034.028.034.029.034.028.035.03.037.027.035.026.035.028.038.027.036.026.036.026.037.026.039.025.038.025.038.024.039.024.038.024.041.023.039.024.041.022.039.022.04.022.043.021.041.02.04.021.042.02.043.019.043.018.041.019.043.018.045.018.044.016.042.016.044.017.046.015.044.015.044.014.045.014.045.013.046.013.047.012.045.012.046.011.047.011.047.01.046.01.047.009.048.008.046.008.047.008.05.006.047.006.047.006.048.005.048.005.049.004.048.003.048.003.049.002.048.002.049.001.05.001.048v.048l-.001.052-.001.048-.001.048-.003.05-.002.049-.004.05-.003.048-.005.049-.005.051-.005.05-.006.048-.007.051-.007.049-.008.049-.008.049-.008.049-.01.051-.01.049-.01.05-.011.05-.011.049-.012.048-.012.05-.013.05-.013.049-.014.049-.015.051-.015.049-.015.048-.016.05-.017.05-.016.049-.018.049-.018.049-.018.05-.019.049-.019.049-.02.049-.021.05-.02.048-.021.049-.023.051-.022.048-.022.049-.024.05-.023.048-.024.049-.025.05-.025.049-.026.048-.026.049-.027.05-.026.049-.028.049-.028.049-.028.048-.029.049-.029.049-.03.049-.031.05-.03.049-.031.048-.032.05-.032.049-.033.049-.033.049-.033.048-.035.05-.034.049-.035.049-.035.049-.036.049-.036.049-.038.05-.037.049-.037.049-.039.049-.039.05-.039.049-.04.049-.04.049-.041.05-.041.049-.041.05-.043.05-.042.049-.043.05-.044.049-.044.05-.044.05-.045.049-.046.05-.046.05-.047.05-.047.05-.047.05-.049.05-.048.05-.049.05-.05.051-.05.05-.051.05-.051.05-.051.051-.052.05-.053.051-.053.051-.054.05-.054.051-.055.051-.055.05-.056.052-.056.05-.057.051-.057.051-.058.052-.059.051-.058.051-.06.052-.06.051-.06.051-.061.052-.062.052-.063.051-.062.052-.063.052-.064.052-.065.052-.064.052-.066.052-.066.052-.067.052-.067.053-.049.038-.048.037-.051.038-.051.038-.051.037-.052.038-.053.038-.054.038-.055.039-.055.038-.057.037-.057.038-.057.038-.059.037-.059.038-.06.037-.061.037-.062.036-.063.036-.063.036-.064.035-.065.035-.066.035-.067.034-.067.033-.067.032-.036.017-.034.016-.036.016-.034.015-.036.016-.036.015-.036.016-.036.015-.036.014-.036.015-.037.014-.037.014-.037.014-.038.014-.038.013-.038.014-.037.012-.039.013-.039.012-.039.012-.039.012-.039.012-.04.011-.04.011-.04.011-.04.01-.041.01-.041.01-.041.009-.041.009-.042.009-.041.008-.043.008-.042.007-.043.007-.043.007-.042.006-.044.006-.043.005-.044.005-.044.005-.044.004-.045.003-.045.003-.044.003-.046.002-.045.001-.046.001h-.137l-.046-.002-.047-.002-.047-.002-.046-.003-.047-.004-.047-.004-.047-.005-.048-.006-.047-.006-.047-.007-.048-.007-.047-.008-.048-.009-.048-.01-.047-.01-.048-.011-.048-.012-.048-.012-.047-.013-.048-.014-.047-.014-.047-.015-.048-.016-.048-.017-.037-.013-.075-.03-.074-.034-.071-.038-.07-.042-.067-.045-.064-.049-.062-.053-.059-.055-.055-.059-.053-.062-.049-.064-.045-.067-.042-.069-.038-.072-.034-.073-.03-.076-.026-.076-.022-.078-.017-.079-.013-.08-.009-.081-.005-.081v-.08l.005-.081.008-.081.013-.08.018-.079.021-.078.026-.077.03-.075.034-.073.038-.072.042-.069.045-.067.049-.065.052-.062.056-.058.059-.056.061-.053.065-.049.067-.045.069-.042.072-.038.073-.034.075-.03.077-.026.078-.022.079-.017.08-.013.08-.009.081-.004h.081l.081.004.081.009.079.013.08.017.078.022.076.025.018.007.007.002.007.003.008.002.007.002.007.003.008.002.007.002.008.001.007.002.008.002.007.001.008.002.008.001.008.001.008.001.008.001.008.001.008.001.009.001.009.001h.008l.009.001h.018l.01.001h.01l.009-.001H108.591l.01-.001h.01l.011-.001.011-.001.011-.001.012-.001.011-.001.012-.002.012-.001.012-.002.013-.002.012-.002.013-.002.013-.003.013-.002.014-.003.013-.003.014-.003.014-.003.014-.004.014-.004.015-.003.014-.004.015-.005.015-.004.015-.005.016-.004.015-.005.016-.006.016-.005.016-.006.016-.005.016-.006.017-.006.016-.007.016-.006.018-.007.017-.007.017-.007.017-.007.017-.007.017-.008.018-.008.017-.008.018-.008.016-.007.037-.018.036-.018.037-.019.036-.019.037-.019.037-.021.037-.021.037-.022.038-.022.037-.022.037-.023.038-.024.038-.024.037-.024.038-.025.037-.025.037-.026.037-.026.038-.026.036-.026.037-.027.037-.027.036-.027.036-.027.037-.028.035-.028.059-.046.059-.046.058-.045.057-.046.057-.046.056-.045.056-.045.055-.045.054-.045.054-.045.053-.044.053-.045.052-.044.052-.045.05-.043.051-.044.049-.044.049-.043.049-.043.048-.043.047-.043.047-.043.046-.042.046-.043.045-.042.044-.042.044-.042.043-.041.043-.041.042-.042.042-.041.041-.041.041-.04.039-.041.04-.04.039-.04.038-.04.038-.04.037-.039.037-.039.036-.039.035-.039.035-.039.035-.039.034-.038.033-.038.033-.038.033-.037.032-.038.031-.037.031-.037.03-.036.03-.037.029-.037.029-.036.028-.035.027-.036.028-.036.027-.035.025-.034.026-.035.025-.034.025-.035.024-.034.024-.034.023-.033.023-.033.023-.034.021-.032.021-.033.021-.031.02-.033.021-.032.019-.031.018-.031.019-.031.018-.031.018-.03.017-.031.017-.03.016-.029.016-.029.015-.029.016-.029.014-.029.014-.027.014-.029.014-.028.012-.026.013-.028.012-.027.011-.025.012-.027.011-.026.01-.025.011-.026.01-.026.009-.025.009-.023.009-.025.009-.024.008-.023.008-.024.006-.021.008-.024.007-.024.006-.02.006-.022.006-.022.006-.021.005-.021.005-.021.005-.021.004-.019.004-.019.004-.021.003-.018.004-.019.003-.019.003-.019.002-.018.002-.017.003-.019.002-.017.001-.015.002-.017.001-.018.001-.016.001-.016.001-.015v-.016l.001-.017v-.044l-.001-.013v-.013l-.001-.015-.001-.014-.001-.014-.001-.014-.001-.011-.001-.014-.002-.013-.002-.014-.001-.012-.002-.011-.002-.012-.003-.013-.002-.012-.002-.011-.003-.013-.002-.011-.003-.011-.003-.012-.003-.012-.003-.011-.003-.01-.004-.012-.003-.011-.004-.011-.004-.012-.003-.009-.004-.011-.005-.012-.004-.011-.004-.009-.005-.011-.005-.011-.005-.011-.004-.01-.005-.01-.006-.012-.006-.011-.004-.009-.007-.011-.006-.011-.005-.01-.007-.011-.006-.01-.007-.011-.007-.011-.007-.011-.007-.01-.006-.01-.008-.011-.008-.012-.008-.01-.007-.01-.009-.012-.009-.011-.008-.01-.008-.01-.01-.012-.01-.012-.009-.01-.009-.011-.011-.011-.01-.011-.01-.011-.011-.011-.011-.012-.01-.01-.012-.011-.011-.012-.012-.011-.012-.011-.012-.011-.012-.011-.014-.012-.013-.011-.012-.01-.014-.012-.014-.012-.013-.01-.014-.011-.015-.012-.014-.01-.015-.012-.016-.011-.015-.011-.015-.011-.016-.011-.016-.011-.016-.011-.017-.011-.017-.011-.017-.011-.016-.01-.018-.011-.018-.011-.019-.011-.018-.011-.017-.01-.019-.011-.02-.011-.018-.01-.02-.01-.019-.01-.02-.011-.02-.01-.021-.01-.02-.011-.021-.009-.02-.01-.022-.01-.021-.01-.021-.01-.023-.009-.022-.01-.021-.009-.023-.01-.023-.009-.022-.009-.024-.01-.023-.009-.023-.008-.024-.009-.024-.009-.023-.009-.025-.008-.024-.009-.025-.008-.025-.008-.025-.008-.025-.009-.025-.007-.026-.008-.026-.008-.026-.008-.025-.007-.027-.007-.026-.008-.026-.007-.027-.007-.027-.007-.027-.007-.027-.006-.027-.007-.028-.006-.028-.006-.027-.006-.029-.007-.028-.005-.028-.006-.028-.006-.029-.005-.028-.006-.029-.005-.029-.005-.029-.005-.029-.005-.03-.005-.029-.004-.029-.005-.03-.004-.03-.004-.03-.004-.03-.004-.03-.004-.03-.003-.03-.004-.031-.003-.03-.003-.031-.003-.03-.003-.031-.003-.031-.002-.031-.003-.031-.002-.031-.002-.032-.002-.031-.002-.031-.002-.032-.001-.031-.002-.032-.001-.032-.001-.031-.001-.032-.001h-.032l-.032-.001h-.193l-.032.001-.033.001-.032.001-.033.001-.032.001-.033.001-.032.002-.033.002-.033.001-.032.002-.033.003-.033.002-.032.002-.033.003-.033.003-.033.003-.033.003-.032.003-.033.004-.033.003-.033.004-.033.004-.033.004-.032.004-.033.005-.033.004-.033.005-.033.005-.033.005-.033.005-.032.005-.033.006-.033.005-.033.006-.032.006-.033.006-.033.007-.033.006-.032.007-.033.007-.032.006-.033.008-.032.007-.033.007-.032.008-.032.008-.033.008-.032.008-.032.008-.032.008-.033.009-.031.008-.032.009-.033.009-.032.01-.031.009-.032.009-.032.01-.031.01-.032.01-.032.01-.031.01-.031.011-.031.01-.032.011-.031.011-.031.011-.031.011-.031.011-.031.012-.03.012-.031.011-.03.012-.031.013-.03.012-.03.012-.031.013-.029.013-.03.013-.03.013-.03.013-.03.013-.029.014-.03.014-.029.013-.029.014-.029.014-.029.015-.029.014-.028.014-.029.015-.029.015-.028.015-.029.015-.028.016-.028.015-.027.016-.028.015-.028.016-.028.016-.027.016-.027.017-.027.016-.027.017-.026.016-.027.018-.027.017-.026.017-.027.017-.026.018-.026.017-.025.018-.026.018-.026.018-.025.018-.025.018-.026.019-.025.019-.024.018-.025.019-.024.019-.025.019-.024.02-.024.019-.023.019-.025.02-.023.02-.024.02-.023.02-.023.021-.023.02-.022.02-.023.021-.023.021-.022.021-.022.021-.022.021-.021.021-.022.022-.022.022-.021.022-.021.021-.021.023-.021.022-.021.022-.021.023-.02.023-.019.022-.02.023-.021.024-.019.023-.019.023-.02.023-.02.025-.018.023-.018.024-.019.024-.019.025-.018.024-.018.025-.019.025-.016.024-.018.025-.018.026-.017.024-.017.027-.017.025-.017.026-.017.027-.015.025-.017.026-.016.027-.015.027-.016.027-.015.026-.016.028-.015.027-.015.028-.015.028-.014.028-.014.027-.014.028-.015.029-.016.035-.038.072-.041.069-.044.068-.049.065-.051.062-.055.059-.059.057-.061.053-.064.049-.066.047-.069.042-.071.039-.074.034-.074.031-.077.027-.078.022-.079.018-.079.014-.081.01-.081.005-.081.001-.08-.004-.081-.007-.08-.013-.079-.016-.078-.021-.077-.025-.076-.029-.074-.034-.072-.037-.07-.041-.067-.045-.065-.048-.062-.052-.06-.055-.056-.058-.053-.061-.05-.064-.046-.067-.042-.069-.039-.071-.035-.073-.03-.075-.027-.076-.022-.078-.019-.079-.014-.08-.009-.08-.005-.081-.001-.081.003-.081.008-.08.013-.08.016-.08.021-.078.025-.077.029-.075.034-.074.021-.044.024-.049.024-.049.026-.049.025-.049.026-.048.025-.048.027-.047.026-.047.027-.048.028-.047.027-.046.028-.046.028-.046.029-.047.029-.044.029-.046.029-.045.029-.043.031-.046.03-.043.03-.043.032-.044.031-.043.031-.042.032-.043.032-.042.032-.042.033-.042.033-.041.032-.04.033-.041.035-.041.033-.04.034-.039.034-.039.035-.04.035-.039.035-.038.035-.039.036-.038.035-.037.036-.038.037-.037.036-.036.036-.036.037-.037.037-.036.037-.035.038-.035.037-.035.038-.035.038-.035.039-.034.038-.033.039-.034.039-.033.039-.033.038-.032.04-.032.04-.033.039-.031.04-.031.04-.031.04-.031.041-.031.04-.03.041-.03.04-.029.042-.03.041-.029.041-.029.042-.028.041-.029.042-.027.042-.028.042-.027.042-.028.042-.026.042-.027.043-.026.043-.026.043-.026.043-.025.043-.025.042-.025.044-.024.044-.025.043-.024.044-.024.043-.023.044-.023.044-.023.044-.022.044-.023.044-.022.044-.022.045-.021.045-.022.044-.021.045-.02.044-.021.045-.02.046-.02.044-.02.045-.019.046-.02.045-.018.045-.019.046-.018.045-.019.045-.017.046-.018.046-.017.046-.018.045-.016.046-.017.046-.016.046-.016.046-.016.046-.016.046-.015.047-.015.046-.015.046-.015.047-.014.046-.014.046-.014.047-.014.046-.013.047-.013.046-.013.047-.013.047-.012.046-.012.047-.012.047-.012.046-.011.047-.012.047-.011.047-.01.047-.011.047-.01.047-.01.047-.01.047-.009.047-.01.046-.009.047-.009.048-.008.047-.009.046-.008.048-.008.047-.007.047-.008.047-.007.047-.007.047-.007.047-.006.047-.006.047-.006.047-.006.047-.006.047-.005.047-.005.047-.005.047-.005.047-.004.047-.005.047-.004.047-.003.047-.004.047-.003.047-.003.046-.003.047-.003.047-.002.047-.003.047-.002.046-.001.047-.002.047-.001.046-.001.047-.001.047-.001h.139Z"/>
  <path fill="#61e0ee" d="M107.114 120.463s5.633-11.074 4.568-20.574c-3.332-29.738 5.422-35.572 1.999-53.712-1.188-6.298-3.434-13.472-7.26-18.687-8.407-11.46-24.567-17.412-38.622-14.721-5.628 1.078-10.71 3.514-15.739 6.186C34.562 28.25 30.926 47.869 33.2 64.404c1.006 7.32 7.3 18.728 6.379 26.068-1.919 15.302-1.382 23.584 3.395 33.454 4.072 8.412 19.918 14.749 37.242 12.948 2.951-.307 20.613-3.402 26.898-16.411Z"/>
  <clipPath id="a">
    <path d="M107.114 120.463s5.633-11.074 4.568-20.574c-3.332-29.738 5.422-35.572 1.999-53.712-1.188-6.298-3.434-13.472-7.26-18.687-8.407-11.46-24.567-17.412-38.622-14.721-5.628 1.078-10.71 3.514-15.739 6.186C34.562 28.25 30.926 47.869 33.2 64.404c1.006 7.32 7.3 18.728 6.379 26.068-1.919 15.302-1.382 23.584 3.395 33.454 4.072 8.412 19.918 14.749 37.242 12.948 2.951-.307 20.613-3.402 26.898-16.411Z"/>
  </clipPath>
  <g fill="#4fcbe0" clip-path="url(#a)">
    <path d="M44.571 26.157s-5.809 14.169-2.267 25.645c3.543 11.477 9.777 27.488 8.785 43.498-.992 16.011.709 26.354 4.251 30.888 7.153 9.157 26.637 10.485 31.596 9.068 4.959-1.416-19.553 5.101-33.58-.566-14.027-5.668-16.011-29.471-14.169-44.349 1.842-14.877-10.06-19.128-6.092-44.773 6.376-15.019 6.517-14.169 11.476-19.411Z"/>
    <path d="M67.972 48.147s-1.741 8.706-12.115 8.198c-10.374-.508-11.099-11.099-11.099-11.099l23.214 2.901ZM112.342 43.722s-1.741 8.706-12.115 8.198c-10.374-.508-11.1-11.1-11.1-11.1l23.215 2.902Z"/>
  </g>
  <path d="m74.761 10.633.088.001h.089l.088.001h.088l.088.002.088.001.088.001.089.002.088.002.088.002.088.002.088.002.088.003.089.003.088.003.088.003.088.003.088.004.089.003.088.004.088.004.088.005.088.004.089.005.088.005.088.005.088.005.088.005.088.006.089.006.088.006.088.006.088.006.088.007.088.007.089.007.088.007.088.007.088.008.088.007.088.008.088.008.089.009.175.017.176.017.176.019.176.019.176.02.176.021.176.021.176.023.175.023.176.023.175.025.176.025.175.026.175.027.176.027.175.028.175.029.175.03.174.03.175.031.175.032.174.032.174.033.175.034.174.035.174.035.173.036.174.037.174.037.173.038.173.039.173.04.173.04.173.041.173.042.172.042.173.044.172.043.172.045.172.045.171.046.172.047.171.047.171.048.171.049.171.049.17.05.17.051.171.052.169.052.17.053.17.053.169.054.169.055.168.056.169.056.168.057.168.058.168.058.168.059.167.06.167.06.167.061.167.062.166.062.166.063.166.064.165.064.166.065.164.066.165.067.165.067.164.067.163.069.164.069.163.07.163.07.163.071.162.072.162.072.162.073.161.074.161.074.161.075.16.075.16.077.16.077.159.077.159.079.159.078.158.08.158.08.158.081.157.081.157.082.156.083.156.083.156.084.155.085.155.085.155.086.154.087.153.087.078.044.076.044.077.044.076.044.077.045.076.044.076.045.076.045.076.045.076.045.076.046.075.045.076.046.075.046.076.046.075.046.075.047.075.046.075.047.075.046.074.048.075.047.074.047.075.047.074.048.074.048.074.048.074.048.074.048.073.048.074.049.073.048.074.049.073.049.073.049.073.05.073.049.073.05.072.049.073.05.072.05.073.051.072.05.072.051.072.05.072.051.071.051.072.051.071.051.072.052.071.052.071.051.071.052.071.052.071.052.07.053.071.052.07.053.07.053.071.053.07.053.07.053.069.053.07.054.069.054.07.054.069.053.069.055.069.054.069.054.068.055.069.055.068.055.069.055.068.055.068.055.068.056.068.056.067.055.068.056.067.056.067.057.068.056.067.057.066.056.067.057.066.057.067.057.066.058.066.057.066.058.066.057.066.058.065.058.066.058.065.059.065.058.065.059.065.059.065.058.064.06.065.059.064.059.064.06.064.059.064.06.064.06.063.06.064.06.063.061.063.06.063.061.063.06.062.061.063.062.062.061.062.061.062.062.062.061.062.062.062.062.061.062.061.063.062.062.06.062.061.063.061.063.06.063.061.063.06.063.06.064.06.063.059.064.06.064.06.064.058.064.06.064.059.065.058.064.059.065.058.064.058.065.059.066.058.065.057.065.058.065.057.066.057.066.058.066.057.066.056.066.057.067.056.066.056.067.057.067.055.066.056.067.056.068.055.067.055.068.055.067.055.068.055.068.054.068.055.068.054.068.054.069.054.068.053.069.054.069.053.069.053.069.053.069.053.07.053.069.052.07.052.07.052.07.052.07.052.07.047.065.047.064.047.066.047.065.047.065.046.066.047.066.046.066.046.066.046.066.045.066.046.067.045.067.045.066.045.067.045.067.045.067.044.068.045.068.044.068.044.067.044.069.044.068.043.068.044.068.043.069.043.069.043.069.043.069.043.069.042.069.043.07.042.07.042.069.041.07.042.07.042.07.041.071.042.07.04.07.041.071.041.071.041.071.04.071.041.071.04.071.04.072.04.071.039.072.04.071.039.072.04.073.078.144.077.145.077.145.076.146.076.146.075.146.075.147.074.147.073.148.073.149.072.148.072.149.071.149.07.15.07.15.07.15.069.151.068.151.068.151.067.152.067.152.066.152.065.153.065.153.065.153.064.153.063.154.063.153.062.155.062.154.061.155.061.154.06.156.06.155.059.155.059.156.058.156.057.155.058.157.056.156.056.156.056.157.055.157.054.157.055.157.053.157.053.157.053.157.052.158.052.157.051.157.05.158.051.158.049.158.049.157.049.158.048.158.048.158.047.158.047.157.047.158.045.158.046.158.045.158.044.157.044.158.044.158.043.157.043.158.042.157.042.158.041.157.041.157.04.157.04.157.04.157.039.157.039.156.038.157.038.156.037.156.037.156.036.156.036.155.036.156.035.155.035.155.035.155.033.154.034.154.033.154.033.154.032.154.032.153.031.153.031.153.031.153.03.152.03.151.03.152.029.151.028.151.021.109.02.109.02.109.02.108.019.108.019.108.019.108.018.107.019.107.018.107.017.106.018.107.017.106.017.105.016.106.017.105.016.105.016.105.015.105.015.103.015.105.015.104.015.103.014.103.014.103.014.103.013.103.013.102.013.102.013.102.012.102.013.101.012.101.011.102.012.1.011.101.011.1.011.1.01.1.01.1.01.1.01.099.01.099.009.098.009.099.009.099.008.098.008.098.009.098.007.097.008.097.007.098.008.097.007.097.006.096.007.097.006.096.006.096.006.096.005.095.006.096.005.095.005.095.005.096.004.094.004.095.004.094.004.094.004.094.003.094.003.094.003.094.003.093.003.093.002.093.002.093.002.092.002.093.002.092.001.093.001.092.001.091.001.092.001.092V54.719l-.001.091-.001.091-.001.091-.002.18-.003.179-.004.179-.005.179-.005.178-.006.178-.007.177-.007.177-.008.176-.009.176-.009.175-.01.175-.011.174-.011.174-.012.174-.012.173-.013.173-.014.172-.014.172-.015.171-.015.172-.016.171-.016.17-.017.171-.017.17-.018.169-.019.17-.019.169-.019.169-.02.169-.02.168-.021.168-.021.168-.022.168-.022.168-.022.167-.023.167-.023.168-.024.167-.024.167-.024.167-.025.166-.025.167-.025.166-.026.167-.026.166-.026.167-.027.166-.026.166-.028.167-.027.166-.028.167-.028.166-.028.167-.028.166-.029.167-.029.167-.029.167-.059.334-.059.334-.06.336-.061.336-.061.337-.061.338-.125.68-.125.685-.062.345-.063.347-.063.348-.063.35-.062.352-.062.355-.031.178-.031.178-.031.179-.03.18-.031.181-.03.18-.031.182-.03.183-.03.182-.03.184-.03.184-.029.185-.03.186-.029.186-.029.188-.029.188-.028.189-.029.189-.028.191-.028.191-.028.192-.027.193-.027.194-.027.194-.027.196-.026.196-.026.198-.026.198-.025.199-.026.201-.024.201-.025.202-.024.203-.024.205-.023.205-.023.206-.023.208-.022.208-.022.209-.022.211-.021.212-.021.213-.02.214-.02.215-.019.217-.019.217-.019.219-.018.22-.018.221-.017.223-.016.224-.016.225-.016.226-.015.228-.015.229-.014.23-.013.232-.013.233-.012.234-.012.236-.011.237-.011.238-.01.24-.01.242-.008.243-.009.244-.007.246-.007.247-.007.249-.005.25-.005.252-.005.254-.003.255-.002.128-.001.128-.001.129-.001.13-.001.129-.001.13-.001.131v.659l.001.132.001.134.001.133.001.135.001.135.002.134.001.136.002.136.002.136.003.137.002.137.003.138.003.138.003.139.003.138.004.14.003.14.004.14.004.141.005.141.004.141.005.142.005.143.005.143.005.144.006.143.005.145.006.145.007.145.006.146.007.146.006.147.008.147.007.147.007.148.008.149.008.149.008.15.009.149.008.151.009.151.009.151.01.152.009.153.01.153.01.153.01.154.011.154.01.155.011.156.012.156.011.156.012.157.012.157.012.158.012.158.013.159.013.159.013.161.013.16.014.161.014.161.014.162.015.163.014.163.015.163.015.165.016.164.016.165.016.166.016.166.016.167.017.167.017.168.017.168.018.169.018.169.018.171.018.17.019.171.019.172.019.174.013.117.012.12.012.12.011.12.011.119.01.121.009.12.008.12.008.12.008.12.006.12.006.12.006.121.005.12.004.12.004.12.003.12.002.12.002.121.002.12.001.121v.239l-.001.121-.001.12-.002.12-.002.12-.003.12-.004.12-.004.12-.004.12-.005.12-.005.12-.006.12-.007.119-.006.12-.008.119-.008.12-.008.119-.009.119-.009.119-.009.119-.01.119-.011.119-.011.119-.011.119-.012.118-.012.118-.013.119-.013.118-.013.118-.014.118-.015.118-.014.117-.015.118-.016.117-.015.117-.017.117-.016.117-.017.117-.017.116-.018.116-.018.117-.018.116-.019.116-.019.115-.019.115-.02.116-.02.115-.02.114-.02.115-.021.114-.022.114-.021.114-.022.114-.022.113-.022.113-.023.114-.023.112-.023.113-.023.112-.024.112-.024.112-.024.111-.025.111-.024.111-.025.111-.025.11-.026.11-.025.11-.026.109-.026.109-.026.109-.027.109-.026.108-.027.108-.027.108-.027.107-.028.106-.027.107-.028.107-.028.105-.028.106-.028.105-.029.105-.028.105-.029.104-.029.104-.029.103-.029.103-.029.103-.029.102-.03.102-.029.101-.03.102-.03.1-.03.101-.03.1-.03.099-.03.099-.03.098-.031.099-.03.098-.03.097-.031.097-.031.097-.03.095-.031.096-.062.19-.061.188-.062.186-.062.184-.062.182-.062.18-.062.178-.062.176-.062.174-.061.172-.062.17-.061.167-.061.165-.061.163-.06.161-.06.158-.06.156-.06.153-.058.151-.059.149-.058.146-.057.143-.057.141-.056.139-.055.135-.055.133-.054.13-.053.128-.053.124-.051.122-.051.119-.05.116-.049.113-.048.11-.047.107-.045.104-.045.101-.044.098-.042.095-.042.091-.04.088-.038.085-.038.082-.037.079-.067.146-.063.132-.056.119-.05.105-.044.09-.037.075-.029.059-.022.045-.013.025-.034.07-.039.081-.041.081-.04.08-.041.081-.041.08-.041.08-.041.079-.042.08-.042.079-.042.079-.042.079-.043.078-.043.079-.043.078-.044.077-.044.078-.044.077-.044.077-.044.077-.045.077-.045.076-.045.076-.046.076-.046.075-.046.076-.046.075-.047.075-.046.074-.047.075-.048.074-.047.074-.048.073-.048.074-.048.073-.048.073-.049.072-.049.073-.049.072-.049.072-.049.072-.05.072-.05.071-.05.071-.051.071-.05.07-.051.071-.051.07-.051.07-.052.07-.051.069-.052.069-.052.069-.053.069-.052.068-.052.068-.054.069-.052.067-.054.068-.053.067-.054.067-.054.067-.054.067-.054.066-.054.066-.055.066-.055.066-.055.066-.055.065-.055.065-.056.064-.056.065-.056.065-.055.063-.057.065-.056.063-.057.064-.057.063-.057.063-.057.063-.057.062-.057.063-.058.062-.058.062-.057.061-.059.062-.058.061-.058.061-.059.061-.059.06-.059.061-.059.06-.059.06-.059.059-.06.06-.059.059-.06.059-.06.059-.06.058-.06.059-.061.058-.06.058-.061.058-.061.057-.061.058-.06.056-.062.057-.061.057-.061.057-.062.056-.062.056-.062.056-.061.055-.063.056-.062.055-.062.055-.062.054-.063.055-.063.055-.063.054-.063.054-.063.053-.063.054-.063.053-.063.053-.064.053-.064.053-.063.052-.064.052-.064.053-.064.052-.064.051-.064.052-.065.051-.064.051-.064.051-.065.05-.065.051-.065.05-.065.05-.064.05-.066.05-.065.049-.065.05-.065.048-.066.049-.066.049-.065.049-.066.048-.065.048-.066.048-.066.047-.066.048-.066.047-.066.047-.067.047-.066.047-.066.047-.067.046-.066.046-.067.046-.067.046-.066.045-.067.046-.067.045-.066.045-.067.045-.068.045-.134.088-.134.088-.135.087-.134.087-.135.085-.136.085-.135.085-.135.083-.136.083-.136.082-.136.081-.136.081-.136.08-.136.079-.137.079-.136.078-.137.077-.136.076-.137.076-.137.075-.137.074-.136.074-.137.073-.137.072-.137.072-.137.071-.137.07-.136.07-.137.069-.137.068-.137.068-.136.067-.137.066-.136.066-.137.065-.136.064-.136.064-.136.063-.136.063-.136.062-.136.061-.135.061-.135.06-.135.059-.135.059-.135.058-.135.058-.134.057-.135.056-.133.056-.134.055-.134.055-.133.054-.133.053-.132.053-.133.053-.132.051-.132.051-.131.051-.131.05-.131.05-.131.048-.13.049-.13.047-.129.048-.129.046-.129.046-.128.046-.128.045-.128.045-.127.044-.126.043-.127.043-.125.042-.126.042-.125.041-.124.041-.124.041-.123.039-.123.04-.123.038-.121.039-.122.037-.12.038-.121.036-.12.037-.119.036-.118.035-.118.035-.118.034-.116.034-.116.033-.116.033-.115.033-.114.031-.114.032-.113.031-.112.031-.112.03-.111.029-.11.03-.11.028-.109.029-.108.028-.107.027-.107.027-.106.027-.105.026-.105.026-.103.025-.103.025-.102.024-.101.024-.101.024-.1.023-.098.023-.098.022-.097.022-.097.022-.095.021-.095.021-.093.02-.093.02-.092.02-.091.019-.091.019-.176.036-.174.035-.17.034-.166.032-.162.031-.157.029-.154.028-.15.026-.145.025-.141.024-.137.023-.132.021-.128.02-.123.019-.118.017-.114.017-.11.015-.104.014-.1.013-.095.012-.091.01-.086.01-.079.009-.106.011-.104.01-.104.011-.104.01-.104.01-.104.009-.104.01-.105.01-.206.018-.208.017-.207.017-.207.016-.207.015-.207.015-.207.013-.206.013-.207.013-.206.011-.206.011-.205.01-.206.009-.205.009-.205.008-.205.007-.205.007-.204.005-.204.005-.204.005-.204.003-.204.003-.203.002-.203.002-.203.001h-.202l-.203-.001-.202-.001-.202-.002-.201-.003-.201-.003-.201-.004-.201-.005-.201-.006-.2-.006-.2-.007-.199-.007-.2-.008-.199-.009-.199-.01-.198-.01-.198-.011-.198-.011-.198-.012-.197-.013-.197-.014-.196-.014-.197-.014-.196-.016-.195-.016-.195-.017-.195-.017-.195-.018-.194-.019-.194-.019-.194-.02-.193-.02-.193-.022-.192-.021-.192-.023-.192-.023-.191-.023-.191-.025-.191-.025-.19-.025-.19-.026-.189-.027-.189-.027-.189-.028-.188-.029-.188-.029-.187-.03-.187-.03-.187-.031-.186-.032-.186-.032-.185-.033-.185-.033-.185-.034-.184-.035-.183-.035-.183-.035-.183-.037-.182-.036-.182-.038-.181-.038-.181-.038-.18-.039-.18-.04-.18-.04-.179-.041-.178-.042-.178-.042-.178-.042-.177-.043-.176-.044-.176-.044-.176-.044-.175-.046-.175-.045-.174-.047-.173-.047-.173-.047-.173-.048-.171-.048-.172-.049-.171-.05-.17-.05-.17-.051-.169-.051-.169-.051-.168-.052-.168-.053-.167-.053-.166-.054-.166-.054-.166-.055-.164-.055-.165-.056-.163-.056-.163-.057-.163-.057-.162-.058-.161-.058-.161-.059-.16-.059-.159-.06-.159-.06-.159-.061-.157-.061-.157-.062-.157-.062-.156-.062-.155-.064-.155-.063-.154-.064-.153-.065-.153-.065-.152-.065-.151-.066-.151-.067-.15-.067-.149-.067-.149-.068-.148-.068-.148-.069-.147-.069-.146-.07-.145-.07-.145-.071-.144-.071-.143-.071-.143-.072-.142-.073-.141-.072-.141-.074-.14-.073-.139-.075-.138-.074-.138-.075-.137-.076-.137-.076-.135-.076-.135-.077-.134-.077-.134-.078-.132-.078-.132-.078-.131-.079-.131-.08-.128-.079-.066-.04-.064-.041-.065-.04-.064-.04-.063-.041-.064-.04-.063-.041-.064-.041-.063-.041-.062-.041-.063-.041-.062-.041-.063-.041-.062-.042-.061-.041-.062-.042-.062-.042-.061-.041-.061-.042-.061-.042-.061-.043-.06-.042-.06-.042-.06-.042-.06-.043-.06-.043-.059-.043-.06-.043-.059-.042-.058-.043-.059-.043-.058-.044-.059-.043-.058-.044-.058-.043-.058-.044-.057-.044-.057-.044-.057-.043-.057-.045-.057-.044-.056-.044-.056-.044-.056-.045-.056-.045-.055-.044-.056-.045-.055-.045-.055-.045-.055-.045-.054-.045-.054-.045-.055-.046-.053-.045-.054-.046-.053-.045-.054-.046-.053-.046-.052-.046-.053-.046-.052-.046-.052-.046-.052-.047-.052-.046-.051-.047-.052-.047-.051-.046-.05-.047-.051-.047-.05-.047-.051-.047-.049-.047-.05-.048-.05-.047-.049-.048-.049-.048-.049-.047-.048-.048-.049-.048-.048-.048-.048-.048-.047-.048-.048-.049-.047-.048-.047-.049-.047-.048-.046-.049-.046-.049-.046-.049-.046-.049-.046-.049-.045-.049-.045-.049-.045-.049-.045-.05-.044-.05-.044-.049-.044-.05-.044-.05-.043-.05-.043-.05-.043-.05-.043-.05-.043-.051-.042-.05-.041-.051-.042-.05-.042-.051-.041-.051-.041-.051-.041-.051-.04-.051-.04-.051-.04-.051-.04-.051-.04-.052-.039-.052-.039-.051-.039-.052-.038-.052-.038-.052-.039-.052-.037-.052-.037-.052-.038-.053-.037-.052-.037-.053-.036-.052-.036-.053-.036-.053-.035-.053-.036-.053-.035-.053-.035-.053-.034-.053-.035-.054-.034-.053-.033-.053-.034-.055-.033-.053-.033-.054-.033-.054-.032-.053-.033-.055-.032-.054-.031-.054-.031-.054-.032-.056-.031-.054-.03-.054-.03-.055-.03-.055-.03-.055-.029-.055-.029-.055-.029-.055-.029-.056-.028-.055-.028-.055-.028-.056-.027-.056-.027-.055-.058-.119-.056-.118-.057-.119-.056-.118-.056-.118-.055-.118-.055-.118-.055-.118-.054-.118-.053-.117-.054-.118-.053-.117-.053-.118-.052-.117-.052-.117-.052-.118-.051-.116-.05-.117-.051-.117-.05-.117-.049-.117-.05-.117-.049-.117-.048-.116-.048-.117-.048-.117-.047-.116-.047-.116-.047-.117-.046-.116-.046-.117-.046-.116-.045-.116-.045-.117-.044-.116-.044-.116-.044-.116-.043-.117-.043-.116-.043-.116-.042-.116-.042-.117-.041-.116-.041-.116-.041-.116-.041-.117-.04-.116-.039-.116-.039-.116-.039-.117-.039-.116-.038-.117-.038-.116-.037-.116-.037-.117-.037-.116-.037-.117-.036-.116-.035-.117-.036-.117-.034-.117-.035-.116-.034-.117-.034-.117-.034-.117-.033-.117-.033-.117-.032-.117-.032-.118-.032-.117-.031-.117-.031-.118-.031-.117-.03-.118-.03-.118-.029-.117-.03-.118-.029-.118-.028-.118-.028-.118-.028-.119-.028-.118-.027-.119-.026-.118-.027-.119-.026-.119-.026-.119-.025-.119-.025-.119-.025-.12-.024-.119-.024-.12-.024-.119-.023-.12-.023-.121-.023-.12-.022-.12-.022-.12-.022-.121-.021-.121-.021-.121-.021-.121-.02-.121-.02-.121-.019-.122-.02-.122-.019-.122-.018-.122-.018-.122-.018-.122-.018-.123-.017-.123-.017-.123-.017-.123-.016-.123-.016-.124-.016-.124-.015-.124-.015-.124-.014-.124-.015-.125-.014-.125-.013-.125-.014-.125-.013-.125-.012-.126-.013-.126-.012-.126-.012-.126-.011-.127-.011-.127-.011-.127-.01-.127-.01-.128-.01-.128-.01-.128-.009-.128-.009-.129-.009-.129-.008-.129-.008-.129-.007-.13-.008-.129-.007-.131-.007-.13-.006-.131-.006-.131-.006-.131-.005-.132-.006-.132-.005-.132-.004-.132-.005-.133-.003-.133-.004-.133-.004-.134-.003-.134-.003-.135-.002-.134-.002-.135-.002-.135-.002-.136-.001-.136-.001-.136-.001-.137-.001-.137v-.274l.001-.139v-.138l.001-.138.002-.139.001-.14.002-.14.002-.14.002-.14.003-.141.003-.141.003-.142.004-.142.003-.142.004-.143.005-.143.004-.144.005-.144.005-.144.006-.145.005-.145.006-.146.007-.146.006-.146.007-.147.007-.147.007-.147.008-.149.008-.148.008-.149.008-.149.009-.15.009-.151.009-.15.009-.151.01-.152.01-.152.01-.153.011-.153.01-.153.011-.154.012-.154.011-.155.012-.156.012-.155.012-.156.013-.157.013-.158.013-.158.013-.158.013-.158.014-.16.014-.16.014-.16.015-.161.015-.161.015-.162.015-.162.015-.163.016-.164.016-.164.016-.164.017-.165.017-.166.017-.166.034-.334.036-.336.036-.338.038-.341.038-.343.04-.345.04-.348.041-.35.042-.352.043-.355.044-.357.045-.356.009-.078.009-.075.007-.075.008-.076.007-.077.006-.076.006-.077.005-.078.005-.079.004-.079.003-.079.003-.079.003-.081.002-.081.002-.081.001-.082v-.164l-.001-.083-.001-.084-.001-.084-.003-.085-.002-.084-.003-.086-.004-.085-.004-.086-.005-.087-.005-.087-.006-.088-.006-.088-.007-.088-.007-.089-.008-.089-.008-.089-.008-.09-.01-.09-.009-.091-.01-.09-.011-.092-.011-.092-.011-.092-.012-.092-.012-.093-.013-.093-.014-.094-.013-.094-.015-.094-.014-.094-.015-.095-.016-.095-.016-.096-.016-.095-.017-.097-.017-.096-.018-.097-.018-.097-.018-.097-.019-.098-.019-.097-.02-.099-.02-.098-.02-.099-.021-.099-.021-.099-.022-.1-.022-.1-.022-.1-.022-.1-.023-.1-.024-.101-.024-.101-.024-.101-.024-.102-.025-.101-.025-.102-.025-.103-.026-.102-.026-.102-.026-.103-.027-.103-.027-.103-.028-.104-.027-.103-.028-.104-.028-.104-.029-.104-.029-.104-.029-.105-.029-.105-.03-.104-.029-.105-.031-.106-.03-.105-.031-.105-.031-.106-.031-.106-.031-.106-.032-.106-.032-.106-.032-.106-.065-.213-.065-.214-.067-.214-.067-.215-.068-.214-.069-.216-.07-.215-.07-.216-.071-.217-.071-.216-.072-.217-.073-.217-.073-.217-.073-.218-.074-.217-.074-.218-.074-.218-.075-.218-.075-.218-.075-.218-.151-.436-.152-.436-.152-.436-.151-.435-.152-.435-.15-.433-.15-.432-.074-.217-.074-.215-.074-.215-.073-.215-.073-.215-.072-.214-.072-.213-.072-.213-.07-.213-.07-.212-.07-.212-.068-.211-.068-.211-.068-.21-.066-.21-.066-.208-.064-.209-.064-.207-.031-.104-.032-.103-.031-.104-.031-.103-.03-.103-.03-.102-.03-.103-.03-.102-.03-.103-.029-.102-.029-.101-.028-.102-.029-.102-.028-.101-.027-.101-.028-.101-.027-.1-.027-.101-.026-.101-.026-.1-.026-.099-.025-.1-.026-.1-.025-.099-.024-.099-.024-.099-.024-.099-.023-.099-.023-.098-.023-.098-.022-.098-.022-.097-.021-.098-.021-.097-.021-.097-.02-.097-.02-.097-.02-.096-.019-.096-.018-.096-.018-.096-.018-.095-.017-.095-.017-.095-.017-.095-.016-.095-.015-.094-.015-.094-.015-.094-.014-.094-.013-.093-.013-.092-.027-.2-.027-.198-.025-.199-.026-.199-.024-.2-.025-.199-.023-.2-.023-.2-.023-.201-.022-.2-.021-.201-.02-.202-.021-.201-.019-.202-.019-.201-.018-.202-.018-.203-.017-.202-.017-.203-.016-.203-.015-.203-.015-.203-.014-.204-.013-.204-.013-.204-.012-.204-.012-.204-.011-.204-.01-.205-.01-.204-.009-.205-.008-.205-.008-.206-.007-.205-.006-.205-.006-.206-.005-.206-.005-.205-.004-.206-.003-.206-.002-.206-.002-.207-.001-.206v-.413l.001-.207.001-.206.003-.207.003-.207.003-.207.005-.207.005-.207.006-.207.006-.207.008-.207.007-.208.009-.207.01-.207.01-.207.011-.208.011-.207.012-.207.013-.207.007-.104.007-.104.007-.104.008-.103.007-.104.008-.104.008-.103.008-.104.008-.104.009-.103.009-.104.008-.104.01-.104.009-.103.009-.103.01-.104.01-.104.01-.103.01-.104.01-.104.011-.103.011-.104.011-.103.011-.103.011-.104.012-.103.011-.104.012-.103.013-.104.012-.103.012-.104.013-.103.013-.103.013-.104.014-.103.013-.103.014-.104.014-.103.014-.103.014-.103.015-.104.015-.103.014-.103.016-.103.015-.104.015-.102.016-.103.016-.103.016-.103.017-.103.016-.103.017-.103.017-.103.017-.103.017-.102.018-.103.018-.104.018-.102.018-.103.019-.102.018-.103.019-.103.019-.102.019-.102.02-.103.019-.103.02-.102.02-.102.021-.102.02-.103.021-.102.021-.102.021-.102.021-.103.022-.102.022-.101.022-.102.022-.103.023-.101.022-.102.023-.102.023-.102.023-.101.024-.102.024-.101.024-.102.024-.102.024-.101.025-.101.025-.101.025-.102.025-.101.026-.102.026-.101.025-.1.027-.101.026-.102.027-.1.027-.101.027-.101.027-.101.028-.101.027-.1.028-.1.028-.101.029-.1.029-.101.028-.1.029-.1.03-.101.029-.099.03-.101.03-.099.03-.1.031-.1.031-.1.031-.099.031-.1.031-.1.032-.099.032-.1.032-.099.032-.099.033-.099.033-.1.033-.099.033-.098.034-.1.033-.098.034-.099.035-.099.034-.098.035-.099.035-.098.035-.098.035-.098.036-.099.036-.098.036-.098.036-.098.037-.098.037-.098.037-.097.037-.098.038-.097.038-.098.038-.097.038-.097.039-.097.039-.097.039-.097.039-.097.04-.097.039-.096.04-.097.041-.097.04-.096.041-.096.041-.097.041-.096.042-.096.042-.096.042-.095.042-.096.043-.096.042-.095.043-.095.044-.096.043-.096.044-.094.044-.095.044-.095.045-.095.045-.095.045-.094.045-.095.046-.094.046-.094.046-.095.046-.094.047-.093.047-.095.047-.093.047-.094.048-.093.048-.094.048-.093.048-.093.049-.093.049-.093.049-.093.049-.092.05-.093.05-.092.05-.093.051-.092.051-.092.051-.092.051-.092.051-.092.052-.091.052-.092.053-.091.053-.091.052-.091.054-.091.053-.091.054-.091.054-.09.054-.091.054-.09.055-.09.055-.09.055-.09.056-.09.056-.09.056-.089.057-.09.056-.089.057-.089.057-.089.058-.089.057-.088.059-.089.058-.089.058-.088.059-.088.059-.088.06-.088.059-.087.06-.088.06-.087.061-.088.061-.087.061-.087.061-.087.062-.086.062-.087.062-.086.062-.087.063-.086.063-.085.063-.086.064-.086.064-.085.064-.086.064-.085.065-.085.065-.085.065-.084.066-.085.066-.084.066-.085.066-.083.067-.084.067-.084.067-.083.068-.084.068-.083.068-.083.068-.083.069-.083.069-.082.069-.083.07-.082.069-.082.071-.082.07-.082.071-.081.071-.082.071-.081.071-.081.072-.081.073-.081.072-.08.073-.08.073-.081.073-.08.074-.079.074-.08.074-.08.074-.078.075-.08.075-.079.076-.078.075-.079.076-.078.076-.078.077-.078.077-.078.077-.078.077-.077.078-.077.078-.078.078-.076.079-.077.079-.076.079-.077.08-.076.079-.076.081-.075.08-.076.081-.075.081-.076.081-.074.082-.075.082-.075.082-.074.082-.074.083-.074.083-.074.084-.073.083-.074.084-.073.085-.073.084-.072.085-.073.085-.072.086-.072.086-.072.086-.072.086-.071.087-.071.087-.072.088-.07.087-.071.088-.07.089-.071.088-.07.089-.069.089-.07.09-.069.09-.07.09-.068.09-.069.091-.069.091-.068.091-.068.092-.068.092-.067.092-.068.093-.067.093-.067.093-.066.093-.067.094-.066.094-.066.095-.066.094-.066.096-.065.095-.065.095-.065.097-.065.096-.064.097-.064.096-.064.098-.064.097-.064.098-.063.098-.063.099-.063.099-.062.099-.063.099-.062.1-.062.1-.061.101-.062.1-.061.101-.061.102-.06.101-.061.102-.06.103-.06.102-.06.103-.059.103-.06.104-.059.104-.058.104-.059.104-.058.105-.058.106-.058.105-.057.106-.058.106-.057.106-.056.238-.126.238-.126.238-.125.238-.125.239-.125.238-.124.239-.124.24-.123.24-.123.24-.123.24-.121.241-.122.24-.12.122-.06.12-.06.121-.06.121-.06.121-.059.121-.06.122-.059.121-.059.121-.058.122-.059.122-.058.122-.058.121-.058.123-.058.122-.058.122-.057.122-.057.123-.057.122-.057.123-.057.123-.056.123-.056.123-.056.123-.056.124-.055.123-.055.124-.055.124-.055.123-.054.125-.054.124-.054.124-.054.124-.053.125-.053.125-.053.125-.053.125-.052.125-.052.125-.052.126-.051.125-.051.126-.051.126-.051.126-.05.127-.05.126-.05.127-.049.126-.049.127-.049.127-.048.127-.048.128-.048.127-.047.128-.047.128-.047.128-.046.129-.046.128-.046.129-.045.128-.045.129-.045.13-.044.129-.044.129-.043.13-.043.13-.043.13-.043.131-.041.13-.042.131-.041.131-.041.131-.04.131-.04.132-.04.131-.039.132-.039.132-.038.132-.038.133-.037.133-.037.133-.037.133-.036.133-.036.134-.035.133-.035.134-.034.134-.034.135-.034.135-.032.134-.033.135-.032.136-.032.135-.031.136-.03.136-.03.136-.03.136-.029.137-.029.137-.028.137-.028.137-.027.137-.026.087-.017.086-.016.086-.016.086-.015.086-.016.086-.015.086-.015.087-.015.086-.015.086-.014.087-.015.086-.014.086-.014.087-.013.086-.014.087-.013.087-.013.086-.013.087-.013.087-.012.086-.012.087-.012.087-.012.087-.012.087-.011.087-.011.086-.011.087-.011.088-.011.087-.01.087-.011.087-.01.087-.009.087-.01.087-.009.088-.01.087-.009.087-.008.087-.009.088-.008.087-.008.088-.008.087-.008.087-.008.088-.007.087-.007.088-.007.087-.007.088-.007.088-.006.087-.006.088-.006.088-.006.087-.006.088-.005.088-.005.087-.005.088-.005.088-.005.088-.004.088-.005.087-.004.088-.003.088-.004.088-.003.088-.004.088-.003.088-.003.088-.002.088-.003.088-.002.088-.002.088-.002.088-.001.088-.002.088-.001.088-.001.088-.001.088-.001h.088l.088-.001h.176Zm-.169 2.99h-.081l-.082.001-.081.001h-.082l-.081.001-.082.002-.081.001-.081.002-.082.001-.081.002-.081.002-.082.002-.081.003-.081.003-.081.002-.082.003-.081.004-.081.003-.081.003-.081.004-.081.004-.082.004-.081.004-.081.005-.081.004-.081.005-.081.005-.08.005-.081.006-.081.005-.081.006-.081.006-.081.006-.08.006-.081.007-.081.006-.08.007-.081.007-.081.007-.08.008-.081.007-.08.008-.081.008-.08.008-.08.008-.081.009-.08.008-.08.009-.081.009-.08.009-.08.01-.08.009-.08.01-.08.01-.08.01-.08.011-.08.01-.08.011-.08.011-.08.011-.079.011-.08.011-.08.012-.079.012-.08.012-.079.012-.08.012-.079.013-.08.013-.079.013-.079.013-.08.013-.079.014-.079.013-.079.014-.079.014-.079.014-.079.015-.079.014-.079.015-.078.015-.127.025-.126.025-.126.025-.125.026-.126.026-.125.027-.125.027-.125.028-.125.028-.124.028-.125.029-.124.03-.124.03-.125.03-.123.031-.124.031-.124.032-.123.032-.124.033-.123.033-.123.033-.123.034-.123.034-.122.035-.123.035-.122.036-.123.035-.122.037-.122.037-.122.037-.122.037-.122.038-.121.038-.122.039-.121.039-.121.04-.122.039-.12.041-.121.04-.121.041-.121.042-.121.041-.12.042-.121.043-.12.042-.12.044-.12.043-.121.044-.119.044-.12.045-.12.045-.12.045-.119.045-.12.046-.12.046-.119.047-.119.047-.119.047-.12.047-.119.048-.119.048-.119.049-.118.048-.119.049-.119.05-.118.049-.119.05-.119.05-.118.051-.118.051-.119.051-.118.051-.118.052-.118.052-.118.052-.118.052-.118.053-.118.053-.118.053-.118.053-.118.054-.118.054-.117.054-.118.055-.117.054-.118.055-.118.056-.117.055-.118.056-.117.055-.117.057-.118.056-.117.056-.117.057-.117.057-.118.057-.117.057-.117.058-.117.058-.117.058-.117.058-.117.058-.235.117-.234.118-.234.119-.234.119-.234.12-.233.12-.234.122-.234.121-.234.122-.234.123-.234.123-.234.124-.233.124-.099.053-.098.052-.098.053-.097.053-.097.054-.097.053-.096.054-.097.054-.096.054-.095.054-.095.055-.095.055-.095.055-.094.055-.094.055-.093.056-.094.056-.093.056-.093.056-.092.057-.092.057-.092.057-.091.057-.092.057-.091.058-.09.057-.09.058-.09.059-.09.058-.089.059-.09.058-.088.059-.089.06-.088.059-.088.06-.088.059-.087.06-.087.061-.086.06-.087.061-.086.061-.086.06-.085.062-.086.061-.085.062-.084.062-.084.062-.085.062-.083.062-.084.063-.083.063-.083.063-.083.063-.082.063-.082.064-.081.063-.082.064-.081.064-.081.065-.08.064-.081.065-.08.065-.08.065-.079.065-.079.066-.079.065-.079.066-.078.066-.078.066-.078.067-.077.066-.077.067-.077.067-.077.067-.076.067-.076.068-.076.067-.076.068-.075.068-.075.068-.074.069-.075.068-.074.069-.074.069-.073.069-.074.069-.073.07-.072.069-.073.07-.072.07-.072.07-.072.07-.071.071-.071.07-.071.071-.07.071-.071.071-.07.072-.069.071-.07.072-.069.072-.069.072-.069.072-.068.072-.068.073-.068.072-.068.073-.067.073-.067.073-.067.074-.067.073-.066.074-.066.074-.065.074-.066.074-.065.074-.065.075-.065.074-.064.075-.065.075-.063.075-.064.075-.063.076-.064.075-.063.076-.062.076-.063.076-.062.076-.061.076-.062.077-.061.077-.061.077-.061.077-.061.077-.06.077-.06.077-.06.078-.06.078-.059.078-.059.078-.059.078-.058.078-.058.079-.058.078-.058.079-.058.079-.057.079-.057.079-.057.079-.056.08-.057.08-.056.08-.055.08-.056.079-.055.081-.055.08-.055.081-.054.08-.055.081-.054.081-.054.081-.053.081-.053.081-.053.082-.053.082-.053.081-.052.082-.052.083-.052.082-.052.082-.051.082-.051.083-.051.083-.051.082-.05.083-.05.083-.05.084-.05.083-.049.083-.049.084-.049.084-.049.084-.048.084-.048.084-.049.084-.047.084-.048.085-.047.084-.047.085-.047.085-.046.085-.047.085-.046.086-.046.085-.045.085-.046.086-.045.086-.045.085-.044.086-.045.087-.044.086-.044.086-.044.087-.043.086-.044.087-.043.087-.043.087-.042.086-.043.088-.042.087-.042.087-.041.088-.042.087-.041.088-.041.088-.041.088-.04.088-.041.088-.04.088-.04.089-.039.088-.039.088-.04.089-.039.089-.038.089-.039.089-.038.089-.038.089-.038.09-.038.089-.037.089-.037.09-.037.09-.037.09-.036.09-.037.089-.036.09-.035.091-.036.09-.035.091-.036.09-.035.091-.034.09-.035.092-.034.09-.034.091-.034.091-.034.091-.033.092-.033.091-.033.091-.033.092-.032.092-.033.091-.032.092-.032.092-.031.092-.032.092-.031.092-.031.092-.031.093-.031.092-.03.093-.03.093-.03.092-.03.093-.029.092-.03.093-.029.093-.029.094-.029.093-.028.093-.028.093-.028.094-.028.093-.028.094-.027.093-.027.094-.028.094-.026.093-.027.094-.026.094-.026.095-.027.094-.025.094-.026.094-.025.094-.025.095-.025.095-.025.094-.024.094-.025.095-.024.095-.024.095-.024.095-.023.094-.023.096-.024.095-.022.095-.023.095-.022.095-.023.096-.022.095-.022.096-.022.095-.021.095-.021.096-.021.096-.021.096-.021.095-.02.097-.021.096-.02.095-.02.096-.019.096-.02.097-.019.096-.019.096-.019.097-.019.096-.018.096-.019.096-.018.097-.018.097-.018.096-.017.097-.018.096-.017.097-.017.097-.016.097-.017.096-.016.098-.017.096-.015.097-.016.098-.016.097-.015.097-.016.097-.015.097-.014.097-.015.098-.015.097-.014.097-.014.098-.014.097-.014.097-.013.098-.014.098-.013.097-.013.097-.012.098-.013.098-.012.097-.013.098-.012.098-.012.098-.011.098-.012.097-.011.098-.011.098-.011.098-.011.098-.01.098-.011.098-.01.098-.01.098-.01.098-.01.098-.009.098-.009.099-.009.097-.009.098-.009.099-.009.098-.008.098-.008.098-.008.099-.008.098-.008.098-.007.098-.008.099-.007.098-.007.099-.007.098-.006.098-.007.098-.012.197-.012.197-.011.197-.01.197-.01.197-.009.197-.008.196-.008.197-.006.197-.007.197-.005.197-.005.197-.004.197-.004.197-.003.196-.002.197-.001.197-.001.197-.001.196.001.197.001.196.002.197.002.196.003.196.004.197.004.196.005.196.005.196.006.196.007.196.007.195.008.196.009.195.009.195.01.195.011.196.011.195.011.194.013.195.012.194.014.195.014.194.014.194.016.193.015.194.017.194.017.193.017.193.018.193.019.193.019.192.02.192.02.192.021.192.022.191.022.192.022.191.023.191.024.19.024.191.025.19.025.19.026.188.011.08.011.079.012.08.013.08.013.081.013.081.014.082.014.082.015.083.015.083.015.084.016.084.017.084.016.085.018.086.017.086.018.086.019.087.019.087.019.087.02.088.02.089.02.089.021.089.021.09.022.089.022.091.023.091.022.091.023.091.024.092.024.093.024.093.024.093.025.093.026.093.025.095.026.094.026.095.027.095.027.095.027.096.027.096.028.097.028.097.028.096.029.098.029.097.029.098.03.098.03.099.03.098.061.199.062.2.063.2.063.202.065.202.066.204.067.205.067.205.068.207.069.207.069.208.071.209.071.21.071.21.072.212.073.212.073.212.073.213.149.429.149.431.151.433.152.436.152.436.152.439.153.439.076.221.076.221.075.221.076.221.075.221.076.221.074.222.075.222.074.222.074.222.073.222.073.223.072.222.071.222.071.222.071.223.07.222.069.222.068.222.068.222.033.111.033.111.034.111.033.111.032.11.033.111.032.111.032.111.031.11.032.111.031.111.031.11.031.11.03.111.03.11.03.11.03.11.029.11.029.11.029.11.029.11.028.11.028.109.027.11.027.109.027.109.027.11.026.109.026.109.026.109.025.109.025.109.025.109.024.109.024.108.023.109.023.108.023.108.022.108.022.108.022.108.021.108.021.108.02.107.02.107.02.108.019.107.018.107.019.107.017.107.018.106.017.107.016.106.016.106.016.106.015.106.014.106.014.105.014.106.013.105.013.105.012.105.012.106.011.104.01.105.01.104.01.104.009.104.008.105.008.103.007.104.007.103.006.103.006.103.005.103.004.103.004.103.003.103.003.102.002.102.001.101.001.102v.102l-.001.101-.001.102-.002.101-.002.1-.003.1-.004.101-.005.101-.005.1-.006.099-.007.1-.007.099-.008.1-.009.098-.01.099-.01.099-.011.098-.012.095-.045.358-.043.353-.042.349-.042.348-.04.344-.04.342-.039.34-.037.337-.037.335-.036.332-.035.33-.034.328-.017.162-.016.163-.016.161-.016.161-.016.161-.015.16-.015.159-.015.159-.015.158-.014.158-.015.157-.014.157-.013.155-.014.156-.013.155-.013.155-.013.153-.012.154-.012.152-.012.153-.012.151-.011.151-.011.151-.011.15-.011.15-.01.149-.011.148-.01.149-.009.147-.01.147-.009.147-.009.146-.008.145-.009.145-.008.145-.008.144-.007.144-.008.143-.007.143-.006.142-.007.141-.006.142-.006.141-.006.14-.005.14-.006.139-.005.139-.004.139-.005.138-.004.137-.004.138-.003.137-.004.136-.003.135-.003.136-.002.135-.003.135-.002.134-.001.134-.002.133-.001.133-.001.133v.132l-.001.131v.263l.001.131v.13l.001.13.002.129.001.129.002.129.002.128.003.128.002.128.003.127.004.127.003.126.004.126.004.126.004.126.005.125.005.124.005.125.006.124.005.124.007.123.006.124.007.122.007.123.007.122.007.122.008.122.008.121.008.121.009.12.009.12.009.121.01.12.01.119.01.119.01.119.011.119.011.118.011.119.012.118.012.117.012.118.012.117.013.117.013.116.014.116.013.117.014.116.014.115.015.116.015.115.015.115.016.115.015.114.016.115.017.114.016.114.017.114.018.113.017.113.018.114.018.112.019.114.019.112.019.112.019.113.02.112.02.112.02.112.021.111.021.112.021.111.022.111.022.111.022.111.023.111.023.11.023.111.023.11.024.11.024.11.025.11.025.111.025.109.025.11.026.109.026.11.027.11.026.109.027.109.028.109.028.109.028.109.028.109.029.109.029.108.029.109.03.109.03.108.03.109.031.108.031.108.031.109.032.108.032.109.033.108.032.108.033.108.034.109.034.108.034.108.034.108.035.108.035.108.036.109.035.108.037.108.036.108.037.108.037.109.038.108.038.108.038.108.039.108.039.109.039.108.04.109.04.108.04.108.041.109.041.109.042.108.042.109.042.109.042.109.044.109.043.109.043.109.045.109.044.11.045.108.045.11.046.11.046.109.046.11.046.11.048.11.047.11.048.11.048.11.048.111.049.11.05.111.05.111.049.11.051.111.051.112.051.111.052.111.052.112.052.112.053.112.053.112.054.112.054.113.054.112.021.043.021.043.021.043.022.042.022.043.022.043.022.042.023.043.023.044.023.042.023.042.023.043.025.044.024.042.024.042.024.043.026.043.025.043.025.042.026.043.025.042.026.043.027.043.026.042.027.042.027.043.028.043.027.042.028.043.028.042.029.043.028.042.029.042.029.043.03.043.029.042.03.042.03.042.03.042.031.043.03.042.032.042.031.042.031.042.032.043.032.042.032.041.033.043.033.042.033.042.033.042.034.042.033.042.035.042.034.042.034.041.035.042.035.042.035.042.036.042.035.041.036.042.036.041.037.042.036.042.038.041.037.042.037.041.037.041.038.042.038.041.039.042.038.041.039.041.039.041.04.041.039.042.04.041.04.041.04.041.041.041.041.041.04.041.041.04.042.041.042.041.041.041.042.04.043.041.042.04.043.041.043.04.043.041.044.04.044.041.044.04.044.04.044.04.045.04.045.04.045.041.045.039.046.04.046.04.046.04.046.04.046.039.047.04.047.04.047.039.047.04.048.039.048.04.048.039.048.039.048.039.049.04.049.039.049.039.05.039.049.039.05.039.05.038.05.039.051.039.051.039.05.038.052.039.051.038.051.038.052.039.052.038.052.038.053.038.052.038.053.038.053.038.053.038.054.038.054.037.054.038.054.038.054.037.054.038.055.037.055.037.055.037.056.038.055.037.056.037.056.037.056.037.057.037.056.036.056.037.057.036.058.037.057.036.058.037.058.036.058.036.057.036.118.072.118.072.118.071.12.071.12.071.121.07.122.07.122.07.123.07.124.069.125.069.126.068.126.068.127.068.128.067.129.067.129.067.13.066.131.066.131.066.133.065.133.065.133.064.135.064.135.064.136.063.136.063.137.063.138.062.139.062.139.061.14.061.141.061.141.06.142.06.143.059.143.059.144.059.145.058.145.058.146.057.147.057.147.056.148.056.148.056.149.055.15.055.15.054.151.054.152.053.152.053.153.053.153.052.154.051.155.052.155.05.156.05.156.05.157.049.157.049.158.049.159.048.159.047.16.047.16.046.161.046.161.046.162.045.163.044.163.044.163.044.164.043.165.042.165.042.165.042.167.041.166.04.167.04.168.04.168.039.169.038.169.038.169.038.17.036.171.037.171.036.171.035.172.035.173.034.172.034.174.033.173.032.175.032.174.032.175.031.176.03.176.03.176.029.177.029.177.028.178.028.178.027.178.026.179.026.179.025.18.025.18.024.18.024.181.023.181.022.182.022.182.021.182.021.182.02.183.02.184.018.184.019.184.017.184.017.185.017.185.016.185.015.186.015.186.014.186.013.187.013.187.012.187.011.188.011.188.011.188.009.189.009.188.009.19.007.189.007.19.007.19.006.19.005.19.004.191.004.191.003.191.003.192.002.192.001.192.001h.192l.192-.001.193-.001.193-.003.193-.002.194-.004.193-.004.194-.005.194-.005.195-.006.194-.007.195-.007.195-.009.195-.008.195-.01.195-.01.196-.011.196-.012.196-.012.196-.013.196-.014.197-.015.196-.015.197-.016.197-.016.198-.018.098-.008.098-.01.099-.009.099-.009.099-.01.098-.01.099-.01.097-.01.065-.007.068-.007.074-.009.08-.01.086-.011.091-.012.095-.014.101-.014.106-.016.111-.017.116-.018.12-.019.125-.021.129-.022.133-.023.138-.024.142-.026.147-.027.15-.029.154-.029.158-.032.162-.032.166-.035.084-.017.085-.018.086-.018.087-.019.088-.019.088-.02.09-.02.09-.02.091-.02.092-.021.093-.022.093-.022.095-.022.095-.022.096-.023.096-.024.098-.023.098-.025.099-.024.099-.025.101-.026.101-.025.102-.027.102-.026.103-.027.104-.028.104-.028.105-.028.106-.029.107-.029.107-.03.107-.03.108-.03.109-.031.109-.032.111-.032.11-.032.111-.033.112-.033.112-.034.113-.034.113-.034.113-.036.115-.035.114-.036.115-.037.116-.037.116-.037.116-.038.117-.038.118-.039.118-.039.118-.04.118-.041.119-.04.12-.042.12-.041.12-.043.12-.043.121-.043.121-.044.122-.044.121-.045.123-.045.122-.046.122-.046.123-.047.124-.048.123-.047.124-.049.124-.049.124-.049.124-.05.125-.051.125-.051.125-.052.125-.052.125-.053.126-.053.126-.054.125-.054.126-.055.126-.055.127-.056.126-.057.126-.057.127-.058.126-.058.127-.059.127-.059.126-.06.127-.06.127-.061.127-.062.127-.062.127-.063.126-.063.127-.064.127-.065.127-.065.126-.066.127-.066.127-.067.126-.067.127-.069.126-.068.126-.069.126-.07.126-.071.126-.071.126-.072.126-.072.125-.073.125-.073.125-.074.125-.075.125-.076.124-.076.125-.076.124-.077.124-.078.123-.079.123-.079.124-.08.122-.08.124-.081.06-.041.061-.041.061-.041.061-.041.061-.041.061-.042.06-.042.061-.041.061-.042.06-.043.061-.042.06-.042.06-.043.06-.043.06-.043.06-.043.06-.043.06-.044.059-.043.06-.044.06-.044.059-.044.059-.045.06-.044.059-.045.059-.045.058-.044.059-.046.059-.045.059-.045.058-.046.058-.046.059-.046.058-.046.058-.046.058-.046.058-.047.058-.047.057-.047.058-.047.057-.047.057-.048.058-.047.057-.048.057-.048.056-.048.057-.048.056-.049.057-.049.056-.048.056-.049.056-.049.056-.05.056-.049.056-.05.055-.05.056-.05.055-.05.055-.05.055-.051.055-.05.054-.051.055-.051.055-.052.054-.051.054-.051.054-.052.054-.052.053-.052.054-.052.053-.053.054-.052.053-.053.053-.053.053-.053.052-.053.053-.054.052-.054.052-.053.052-.054.052-.055.052-.054.051-.054.052-.055.051-.055.051-.055.051-.055.051-.056.05-.055.051-.056.05-.056.05-.056.05-.057.05-.056.049-.057.05-.057.049-.056.049-.058.049-.057.049-.058.048-.058.048-.058.048-.058.048-.058.048-.059.048-.058.047-.059.048-.059.047-.059.046-.06.047-.06.046-.059.047-.06.046-.061.046-.06.045-.06.046-.061.046-.061.045-.061.045-.062.044-.061.045-.061.044-.063.044-.062.044-.062.044-.062.043-.063.044-.063.043-.063.043-.063.042-.063.043-.064.042-.064.042-.064.042-.064.042-.064.041-.065.042-.065.041-.065.04-.065.041-.065.04-.065.041-.066.04-.066.039-.066.04-.067.039-.066.039-.067.039-.067.039-.067.038-.067.038-.068.038-.068.037-.067.038-.069.037-.068.037-.069.037-.068.036-.069.037-.069.036-.07.036-.07.035-.069.036-.07.035-.07.034-.071.035-.071.04-.082.02-.039.017-.035.025-.05.032-.065.038-.08.046-.094.051-.108.057-.122.064-.137.033-.072.035-.075.036-.08.038-.082.038-.086.04-.089.041-.091.042-.095.043-.097.044-.101.045-.104.046-.107.047-.109.048-.112.049-.115.049-.118.051-.12.051-.123.052-.126.052-.128.053-.131.054-.134.054-.136.055-.138.055-.141.056-.143.056-.145.057-.148.057-.15.057-.152.058-.155.058-.156.058-.159.058-.161.059-.162.058-.165.059-.167.058-.168.059-.171.059-.172.058-.174.059-.176.058-.178.058-.18.029-.089.029-.091.029-.092.029-.091.029-.092.029-.092.028-.092.029-.094.028-.093.028-.094.029-.094.028-.095.028-.095.028-.095.028-.095.027-.096.028-.097.028-.096.027-.098.027-.097.027-.097.027-.098.027-.098.027-.099.026-.098.027-.1.026-.099.026-.1.026-.099.025-.101.026-.101.025-.1.025-.101.025-.101.025-.102.024-.101.025-.102.024-.103.024-.102.023-.103.024-.103.023-.103.023-.104.023-.103.022-.104.023-.104.022-.104.022-.104.021-.105.021-.104.021-.105.021-.105.02-.106.021-.105.02-.105.019-.106.019-.105.019-.106.019-.107.019-.106.018-.106.017-.106.018-.107.017-.107.017-.107.017-.106.016-.107.016-.107.015-.108.015-.107.015-.107.015-.107.014-.108.013-.107.014-.108.013-.107.012-.108.013-.108.012-.107.011-.108.011-.108.011-.107.01-.108.01-.108.01-.108.009-.107.009-.108.008-.108.008-.108.007-.107.007-.108.007-.107.006-.108.006-.108.005-.107.005-.108.004-.107.004-.107.004-.108.003-.107.002-.107.003-.107.001-.107.001-.107.001-.106v-.214l-.001-.106-.001-.106-.002-.106-.002-.106-.003-.107-.003-.105-.004-.106-.004-.106-.005-.105-.005-.105-.006-.105-.007-.105-.007-.105-.007-.104-.008-.104-.009-.104-.009-.105-.009-.103-.01-.104-.011-.103-.012-.106-.019-.173-.019-.175-.019-.175-.019-.174-.019-.174-.018-.173-.018-.172-.017-.172-.018-.172-.017-.171-.017-.17-.016-.17-.017-.17-.016-.169-.016-.168-.015-.168-.015-.167-.015-.167-.015-.166-.015-.166-.014-.165-.014-.165-.014-.164-.013-.164-.013-.163-.013-.163-.013-.162-.013-.162-.012-.161-.012-.161-.012-.16-.011-.16-.011-.159-.011-.159-.011-.158-.011-.158-.01-.158-.01-.156-.01-.156-.009-.157-.01-.155-.009-.155-.009-.154-.008-.154-.008-.154-.009-.152-.008-.153-.007-.152-.008-.152-.007-.151-.007-.151-.007-.15-.007-.15-.006-.149-.006-.149-.006-.148-.006-.148-.005-.148-.005-.147-.005-.146-.005-.146-.005-.146-.004-.145-.005-.145-.004-.145-.003-.144-.004-.143-.003-.143-.003-.143-.003-.142-.003-.142-.003-.141-.002-.141-.002-.14-.002-.14-.002-.14-.002-.139-.001-.139-.001-.138-.001-.138-.001-.138v-.137l-.001-.137v-.542l.001-.135.001-.134.001-.134.001-.133.001-.133.001-.133.002-.133.004-.262.004-.262.005-.26.006-.259.007-.257.007-.256.008-.254.008-.252.01-.251.009-.25.011-.248.011-.247.011-.245.013-.244.012-.242.014-.241.014-.24.014-.238.015-.237.016-.236.016-.234.017-.233.017-.231.018-.23.018-.23.019-.227.019-.227.019-.225.02-.224.021-.222.021-.222.021-.22.022-.219.023-.218.022-.217.023-.215.024-.215.024-.213.024-.212.025-.211.024-.21.026-.209.025-.208.026-.206.027-.206.026-.204.027-.204.027-.203.028-.201.027-.201.028-.2.029-.198.028-.198.029-.196.029-.196.029-.195.029-.194.03-.193.03-.192.03-.191.03-.19.03-.19.031-.188.03-.188.031-.187.031-.186.031-.186.031-.184.031-.184.031-.183.032-.183.031-.181.032-.182.063-.359.063-.357.063-.354.063-.352.064-.349.063-.347.125-.686.124-.679.061-.336.061-.335.06-.333.059-.332.059-.329.058-.329.028-.164.029-.163.028-.163.027-.163.028-.163.027-.162.027-.162.027-.162.026-.162.026-.162.026-.161.026-.161.025-.161.025-.161.024-.16.024-.161.024-.16.023-.161.023-.16.023-.16.022-.16.022-.16.021-.16.021-.161.021-.16.02-.159.02-.161.019-.16.019-.16.018-.16.018-.16.018-.161.017-.16.016-.161.016-.161.016-.161.014-.161.015-.161.014-.162.013-.162.013-.162.012-.162.012-.162.011-.163.01-.163.01-.163.01-.164.008-.163.008-.165.008-.164.007-.165.006-.166.006-.166.005-.166.004-.166.003-.168.003-.167.003-.169.001-.083v-.085l.001-.084V54.28l-.001-.086-.001-.085v-.086l-.002-.085-.001-.086-.001-.086-.002-.086-.002-.086-.002-.087-.002-.086-.002-.087-.003-.087-.003-.087-.003-.087-.003-.088-.003-.087-.004-.087-.004-.089-.004-.088-.004-.088-.004-.088-.005-.089-.005-.089-.005-.088-.005-.09-.005-.089-.006-.089-.006-.09-.006-.09-.006-.091-.006-.09-.007-.09-.007-.09-.007-.091-.007-.091-.008-.091-.008-.092-.008-.092-.008-.092-.008-.092-.009-.092-.009-.093-.009-.093-.009-.092-.01-.093-.01-.094-.01-.093-.01-.094-.01-.094-.011-.095-.011-.094-.011-.095-.012-.095-.011-.095-.012-.096-.012-.095-.013-.096-.012-.097-.013-.096-.013-.096-.014-.098-.013-.097-.014-.097-.014-.098-.015-.098-.014-.098-.015-.098-.015-.099-.016-.099-.015-.099-.016-.1-.016-.1-.017-.099-.016-.101-.017-.101-.018-.1-.017-.101-.018-.102-.018-.102-.018-.102-.019-.102-.018-.103-.019-.102-.02-.103-.027-.145-.028-.145-.028-.145-.029-.146-.029-.146-.029-.146-.03-.146-.03-.147-.031-.146-.03-.147-.032-.147-.032-.148-.032-.148-.032-.148-.033-.148-.033-.148-.034-.148-.034-.149-.034-.149-.035-.149-.036-.149-.035-.149-.036-.149-.037-.149-.037-.15-.037-.15-.038-.149-.038-.15-.039-.15-.039-.15-.039-.15-.04-.15-.04-.15-.041-.15-.041-.15-.041-.15-.042-.151-.043-.15-.042-.15-.044-.15-.043-.15-.044-.15-.045-.15-.045-.15-.045-.15-.046-.15-.046-.149-.047-.15-.047-.15-.048-.149-.047-.149-.049-.15-.049-.149-.049-.149-.05-.149-.05-.148-.051-.149-.051-.148-.051-.148-.052-.148-.053-.148-.053-.147-.053-.148-.054-.147-.054-.147-.055-.146-.055-.147-.056-.146-.056-.146-.056-.145-.057-.146-.058-.145-.058-.145-.058-.144-.059-.144-.059-.144-.06-.143-.06-.144-.061-.142-.061-.142-.062-.142-.062-.142-.063-.142-.063-.14-.063-.141-.064-.14-.065-.14-.065-.139-.065-.139-.066-.138-.066-.138-.067-.138-.068-.137-.067-.136-.069-.136-.068-.135-.07-.135-.069-.135-.071-.134-.07-.133-.071-.134-.072-.133-.036-.065-.036-.066-.036-.066-.037-.065-.036-.066-.037-.065-.036-.065-.037-.065-.037-.065-.037-.064-.038-.065-.037-.065-.037-.064-.038-.064-.038-.064-.037-.064-.038-.063-.038-.064-.039-.064-.038-.063-.038-.062-.039-.064-.039-.063-.038-.062-.039-.062-.039-.063-.039-.061-.039-.062-.04-.062-.039-.062-.04-.061-.04-.062-.04-.061-.039-.06-.04-.061-.041-.061-.04-.06-.041-.06-.04-.061-.041-.059-.041-.06-.041-.059-.041-.06-.041-.059-.042-.059-.041-.058-.041-.059-.042-.059-.042-.058-.042-.058-.042-.057-.042-.058-.047-.064-.047-.064-.048-.064-.047-.064-.048-.063-.048-.063-.048-.063-.048-.064-.049-.063-.048-.063-.049-.062-.049-.063-.049-.062-.049-.063-.049-.062-.05-.062-.05-.063-.05-.061-.05-.062-.05-.062-.051-.062-.05-.061-.051-.061-.05-.061-.052-.062-.051-.061-.051-.06-.052-.061-.051-.061-.052-.061-.052-.06-.052-.06-.053-.06-.052-.06-.053-.06-.053-.06-.053-.06-.053-.059-.053-.06-.054-.059-.053-.059-.054-.059-.054-.059-.054-.059-.055-.059-.054-.058-.054-.059-.055-.058-.055-.058-.055-.059-.055-.057-.055-.058-.056-.058-.055-.057-.056-.058-.056-.057-.056-.058-.056-.057-.056-.057-.057-.056-.057-.057-.056-.057-.057-.056-.058-.057-.057-.056-.057-.056-.057-.056-.058-.056-.058-.056-.058-.055-.058-.055-.058-.056-.059-.055-.058-.055-.059-.055-.059-.055-.059-.055-.059-.054-.059-.055-.059-.054-.06-.054-.06-.054-.06-.054-.059-.054-.06-.053-.061-.054-.06-.053-.061-.054-.06-.053-.061-.053-.061-.053-.061-.053-.061-.052-.061-.053-.062-.052-.062-.052-.061-.052-.062-.052-.062-.052-.062-.052-.062-.052-.063-.051-.062-.051-.063-.052-.063-.051-.062-.051-.063-.05-.063-.051-.064-.051-.063-.05-.064-.05-.063-.05-.064-.05-.064-.05-.064-.05-.064-.049-.065-.05-.064-.049-.065-.05-.064-.049-.065-.048-.065-.049-.065-.049-.065-.048-.065-.049-.066-.048-.065-.048-.066-.048-.066-.048-.065-.048-.066-.047-.066-.048-.067-.047-.066-.047-.066-.047-.067-.047-.067-.047-.067-.047-.066-.046-.067-.046-.068-.047-.067-.046-.067-.045-.068-.046-.067-.046-.068-.046-.068-.045-.068-.045-.068-.045-.068-.045-.068-.045-.069-.045-.068-.044-.069-.044-.068-.045-.069-.044-.069-.044-.069-.044-.069-.043-.07-.044-.069-.043-.069-.044-.07-.043-.069-.043-.07-.043-.07-.042-.07-.043-.07-.042-.07-.042-.071-.043-.07-.042-.071-.042-.07-.041-.071-.042-.071-.041-.071-.041-.07-.041-.071-.041-.072-.041-.07-.041-.144-.081-.143-.08-.144-.08-.144-.079-.144-.079-.145-.078-.145-.078-.145-.076-.146-.077-.146-.076-.146-.075-.147-.074-.148-.074-.147-.073-.148-.073-.148-.072-.149-.072-.149-.071-.149-.07-.15-.07-.149-.069-.151-.069-.15-.068-.151-.067-.151-.067-.151-.066-.152-.065-.152-.065-.152-.064-.153-.064-.152-.063-.154-.063-.153-.062-.154-.061-.153-.06-.155-.06-.154-.06-.155-.058-.155-.059-.155-.057-.155-.057-.156-.056-.156-.056-.156-.055-.156-.054-.157-.054-.157-.053-.157-.052-.157-.052-.158-.051-.157-.051-.158-.05-.158-.049-.158-.049-.159-.048-.159-.047-.158-.047-.16-.046-.159-.045-.159-.045-.16-.044-.159-.043-.16-.043-.16-.042-.161-.042-.16-.04-.161-.041-.16-.039-.161-.039-.161-.038-.161-.038-.161-.037-.162-.036-.161-.035-.162-.035-.161-.035-.162-.033-.162-.033-.162-.032-.163-.032-.162-.031-.162-.03-.163-.029-.162-.029-.163-.028-.162-.028-.163-.027-.163-.026-.163-.025-.163-.025-.163-.024-.163-.024-.164-.022-.163-.022-.163-.022-.163-.021-.164-.019-.163-.02-.164-.018-.163-.018-.164-.018-.163-.016-.165-.016-.081-.008-.081-.007-.082-.007-.082-.008-.082-.007-.082-.006-.081-.007-.082-.006-.082-.007-.082-.006-.082-.006-.081-.005-.082-.006-.082-.005-.082-.006-.082-.005-.081-.004-.082-.005-.082-.005-.082-.004-.082-.004-.081-.004-.082-.004-.082-.004-.082-.003-.081-.003-.082-.003-.082-.003-.082-.003-.081-.003-.082-.002-.082-.002-.081-.002-.082-.002-.082-.002-.081-.001-.082-.002-.082-.001-.081-.001-.082-.001h-.081l-.082-.001h-.245Z"/>
  <path fill="#b7f8ff" d="M78.169 130.745c17.653-3.076 21.845-11.296 22.862-15.048 1.916-7.067 2.844-20.766 1.123-28.051-.598-2.529-1.728-5.41-3.652-7.504-4.229-4.602-23.14-5.003-30.21-3.922-2.831.433-5.387 1.411-7.916 2.484-8.802 3.733-11.829 46.909 4.874 51.121 4.461 1.124 10.117 1.408 12.919.92Z"/>
  <circle cx="108.768" cy="54.271" r="1.235" fill="#b7f8ff"/>
  <circle cx="47.474" cy="56.513" r="1.235" fill="#b7f8ff"/>
  <path fill="#ededed" d="M86.124 61.264c-.56 1.772-.895 5.156-2.044 6.568-.557.684-1.686.641-2.421.613-4.226-.162-3.857-4.477-4.219-8.276"/>
  <path d="m77.49 59.048.061.005.062.008.061.011.06.014.059.018.058.021.057.024.055.028.054.03.052.033.05.036.048.039.046.041.044.044.041.046.038.049.036.05.033.052.03.054.027.056.024.057.021.058.017.06.014.06.011.061.008.061.008.091.008.092.009.093.007.092.008.092.008.093.014.184.013.184.014.183.012.182.013.182.024.361.013.178.012.178.013.176.013.175.007.087.007.086.007.086.008.085.007.085.008.085.008.084.008.083.009.083.008.083.009.082.01.081.009.08.01.081.01.079.011.079.01.078.012.078.011.077.012.076.012.075.013.075.013.073.013.073.014.073.014.071.015.071.015.069.016.07.008.033.008.034.008.034.008.033.008.033.009.033.009.033.008.032.009.033.009.032.009.031.009.031.009.032.01.031.009.031.01.03.01.031.009.029.01.029.01.03.011.029.01.029.01.029.01.028.011.029.011.027.011.027.011.028.011.027.011.026.011.027.012.026.011.026.012.025.011.026.012.025.012.024.012.025.012.025.012.023.013.024.012.023.013.023.012.023.013.022.013.023.013.022.013.021.013.022.013.021.013.021.014.021.014.02.013.019.014.02.014.02.014.019.014.019.014.019.015.019.014.018.014.018.014.017.015.018.015.017.016.017.015.017.015.017.015.016.015.016.016.016.016.016.016.015.016.016.016.015.016.014.017.015.016.015.017.014.017.014.017.014.018.014.017.014.018.013.018.013.018.013.018.013.019.013.019.012.019.013.019.012.019.012.021.012.02.012.02.011.02.012.021.011.021.011.022.011.022.011.022.011.023.01.022.01.023.01.024.011.024.01.024.009.024.01.025.009.026.009.025.009.027.009.026.009.027.008.027.009.028.008.028.007.029.008.029.008.029.007.03.007.031.007.031.007.031.006.032.006.032.006.033.006.033.006.034.005.034.005.035.005.035.004.035.004.037.004.036.004.038.003.037.004.038.003.039.002.039.002.04.002.042.002.137.005.069.003.07.002.069.001.071.001h.136l.034-.001h.034l.034-.001.033-.002.033-.001.033-.002.032-.002.032-.002.032-.002.031-.003.031-.003.03-.003.029-.004.029-.003.029-.004.028-.005.027-.004.026-.005.026-.005.025-.005.024-.006.024-.005.022-.006.024-.007.008-.002.011-.003.01-.003.009-.003.01-.003.009-.004.009-.003.009-.003.009-.003.008-.004.008-.003.008-.003.007-.003.008-.004.008-.003.006-.003.006-.003.007-.003.006-.003.006-.003.006-.003.006-.004.005-.003.005-.002.004-.003.005-.003.004-.003.004-.002.004-.003.004-.002.004-.003.003-.003.003-.002.003-.002.003-.003.003-.002.002-.002.003-.003.003-.002.002-.002.001-.002.003-.002.002-.003.002-.001.001-.002.002-.002.003-.003.001-.002.016-.019.016-.021.016-.021.016-.023.017-.023.017-.025.016-.025.017-.026.017-.027.018-.028.017-.029.017-.03.018-.03.017-.032.017-.032.018-.034.017-.033.018-.035.017-.036.018-.036.017-.037.017-.038.017-.038.018-.04.017-.039.017-.041.017-.041.017-.042.017-.043.017-.043.017-.044.016-.044.016-.045.017-.046.016-.045.017-.047.016-.047.016-.047.016-.049.016-.048.015-.049.016-.049.015-.05.016-.05.015-.051.015-.051.015-.052.015-.052.015-.051.015-.053.014-.053.015-.053.014-.054.015-.053.028-.109.028-.109.028-.111.027-.111.027-.112.027-.113.026-.113.026-.113.026-.114.026-.114.025-.115.025-.115.025-.114.05-.23.049-.228.049-.227.048-.225.025-.112.024-.111.025-.11.025-.11.024-.108.025-.108.026-.106.025-.106.026-.105.027-.103.026-.102.014-.051.014-.05.013-.051.014-.049.015-.05.014-.05.014-.048.015-.048.014-.049.015-.045.02-.058.023-.057.026-.056.03-.055.032-.052.035-.051.038-.049.041-.046.043-.045.045-.042.048-.039.05-.037.051-.033.054-.031.055-.028.057-.025.058-.022.058-.018.06-.015.061-.012.061-.009.062-.005.062-.001.061.001.062.005.061.009.061.012.06.015.059.018.058.022.056.025.055.028.054.031.051.033.05.037.048.039.045.042.044.044.04.047.038.049.035.05.033.053.029.054.026.056.024.058.02.058.017.059.013.061.01.061.007.061.004.062v.062l-.004.061-.007.062-.01.061-.013.06-.017.059-.012.039-.011.036-.012.038-.011.039-.011.038-.012.04-.011.041-.011.04-.012.042-.011.043-.023.088-.023.09-.023.092-.023.095-.023.097-.023.099-.023.101-.023.103-.024.104-.023.107-.024.107-.047.221-.049.225-.049.23-.05.233-.026.118-.026.119-.026.119-.027.12-.027.12-.028.12-.028.121-.029.121-.029.121-.03.121-.03.121-.031.121-.032.12-.016.061-.016.06-.017.061-.016.06-.017.059-.017.061-.018.06-.017.059-.018.06-.018.059-.018.06-.018.059-.019.059-.019.059-.019.059-.019.058-.02.058-.02.059-.02.058-.021.058-.02.057-.022.057-.021.058-.022.057-.022.056-.022.057-.023.056-.023.056-.024.056-.024.056-.024.054-.024.055-.026.055-.025.055-.026.054-.026.053-.027.054-.028.054-.028.052-.028.053-.029.052-.03.053-.029.051-.031.051-.031.051-.032.05-.033.051-.033.05-.034.05-.035.049-.035.048-.037.049-.036.047-.039.048-.024.03-.025.028-.025.029-.026.028-.026.029-.026.026-.026.026-.028.027-.027.026-.027.024-.027.025-.029.024-.028.024-.028.022-.029.023-.029.022-.029.021-.028.021-.03.02-.029.02-.03.019-.029.019-.029.018-.03.018-.03.018-.03.017-.029.016-.03.016-.03.016-.03.014-.03.015-.03.015-.03.014-.03.013-.029.013-.031.012-.03.013-.029.012-.03.011-.03.011-.03.011-.029.01-.029.01-.03.01-.03.01-.03.009-.028.009-.032.009-.056.015-.058.015-.058.014-.057.013-.058.012-.056.011-.056.01-.056.01-.056.008-.055.008-.054.007-.055.006-.053.006-.054.005-.053.005-.052.004-.052.003-.051.003-.051.003-.05.002-.05.002-.049.001-.049.001-.047.001-.048.001h-.092l-.047-.001-.087-.001-.086-.002-.082-.002-.079-.003-.148-.005-.057-.003-.058-.002-.057-.004-.058-.004-.057-.004-.057-.005-.056-.005-.056-.006-.056-.006-.056-.006-.055-.007-.055-.008-.054-.008-.055-.009-.054-.009-.053-.009-.054-.01-.053-.01-.053-.011-.052-.011-.052-.012-.052-.012-.052-.013-.051-.013-.051-.014-.051-.014-.05-.015-.05-.015-.049-.016-.05-.016-.049-.017-.049-.017-.048-.017-.048-.018-.048-.019-.047-.019-.047-.019-.047-.02-.046-.021-.046-.021-.046-.021-.045-.021-.045-.023-.044-.023-.045-.023-.043-.023-.044-.024-.043-.025-.043-.025-.042-.025-.041-.026-.042-.027-.041-.027-.041-.026-.04-.028-.04-.028-.039-.028-.039-.029-.039-.029-.038-.03-.038-.03-.037-.03-.037-.031-.037-.031-.036-.031-.035-.032-.036-.032-.034-.032-.035-.033-.034-.034-.033-.033-.033-.033-.032-.034-.033-.035-.032-.035-.031-.034-.031-.035-.03-.035-.03-.036-.03-.037-.029-.036-.029-.036-.028-.037-.028-.036-.027-.038-.027-.037-.027-.037-.026-.038-.026-.038-.026-.039-.024-.038-.025-.038-.025-.04-.023-.038-.024-.039-.023-.039-.023-.039-.022-.04-.022-.04-.022-.04-.021-.04-.021-.04-.021-.041-.02-.039-.02-.041-.019-.041-.02-.041-.019-.041-.018-.041-.019-.041-.018-.042-.017-.041-.018-.041-.017-.042-.016-.041-.017-.042-.016-.043-.015-.041-.016-.042-.016-.043-.015-.042-.014-.042-.015-.042-.014-.044-.014-.042-.014-.043-.013-.043-.014-.043-.013-.043-.012-.042-.013-.043-.012-.044-.012-.043-.012-.043-.012-.044-.011-.043-.012-.044-.011-.044-.01-.043-.011-.044-.01-.044-.011-.045-.019-.087-.019-.088-.019-.088-.018-.089-.017-.089-.016-.089-.016-.089-.015-.09-.014-.089-.014-.09-.014-.09-.013-.09-.012-.09-.012-.091-.012-.09-.011-.091-.011-.091-.01-.091-.01-.091-.01-.09-.009-.091-.009-.092-.009-.091-.008-.091-.008-.092-.008-.091-.008-.091-.007-.092-.007-.091-.014-.182-.014-.182-.012-.182-.013-.182-.025-.361-.012-.18-.012-.179-.013-.178-.013-.177-.014-.177-.007-.087-.007-.087-.008-.087-.007-.086-.008-.086-.008-.088-.004-.061-.001-.062.003-.062.006-.061.01-.062.012-.06.017-.06.019-.058.023-.058.025-.056.029-.055.032-.053.035-.051.037-.049.04-.047.043-.045.045-.042.047-.04.049-.037.052-.034.053-.032.055-.028.056-.026.058-.022.058-.019.06-.016.061-.012.061-.009.061-.006.062-.003.062.001ZM81.558 48.102c-3.42.21-6.088 2.146-5.955 4.321.134 2.174 3.019 3.769 6.44 3.558 3.42-.21 6.088-2.146 5.955-4.321-.134-2.174-3.02-3.769-6.44-3.558Z"/>
  <path d="m82.215 53.676.05.003.049.006.049.008.049.01.048.012.047.014.047.016.046.019.045.02.045.022.043.025.042.026.041.028.04.03.038.031.037.033.035.035.034.036.032.038.031.039.028.041.027.041.025.043.023.044.022.045.019.046.017.046.015.048.013.048.01.048.009.049.006.049.005.049.002.05.001.086.002.082.003.083.003.083.003.083.003.083.004.082.004.084.004.082.005.083.005.084.006.083.005.083.006.083.007.084.006.083.007.083.007.084.007.084.007.083.008.084.008.084.008.084.008.083.017.17.018.169.018.169.018.17.019.17.019.171.04.344.039.346.019.174.019.175.019.175.019.176.018.177.017.177.009.09.008.089.008.089.008.09.008.09.007.09.007.091.007.088.003.05v.049l-.001.05-.004.049-.006.05-.008.049-.011.048-.012.048-.015.048-.017.046-.018.046-.021.045-.023.044-.025.043-.026.042-.028.041-.031.039-.031.038-.034.037-.035.035-.037.033-.038.032-.039.03-.041.029-.042.026-.043.025-.044.023-.045.02-.046.019-.047.017-.047.014-.048.013-.049.01-.049.008-.049.006-.049.004-.05.002-.05-.001-.049-.003-.049-.005-.05-.007-.048-.009-.049-.012-.047-.013-.047-.016-.047-.018-.045-.019-.045-.022-.043-.024-.043-.025-.041-.028-.04-.029-.039-.031-.037-.033-.036-.034-.034-.036-.033-.037-.031-.039-.029-.04-.028-.042-.025-.042-.024-.044-.021-.044-.02-.046-.018-.046-.016-.047-.013-.048-.011-.048-.01-.049-.007-.049-.005-.049-.006-.086-.007-.084-.007-.084-.007-.084-.007-.084-.008-.084-.008-.085-.008-.084-.017-.169-.017-.169-.018-.17-.018-.17-.019-.17-.019-.171-.039-.343-.039-.345-.019-.173-.02-.174-.019-.175-.018-.175-.019-.176-.017-.176-.009-.089-.009-.089-.008-.089-.008-.089-.008-.089-.008-.09-.007-.089-.007-.09-.007-.091-.007-.09-.007-.09-.006-.091-.006-.091-.005-.09-.006-.092-.004-.092-.005-.091-.004-.093-.004-.092-.004-.092-.003-.093-.002-.092-.002-.094-.002-.09v-.049l.002-.05.005-.049.006-.05.009-.048.011-.049.013-.048.016-.047.017-.046.019-.046.022-.045.023-.044.025-.042.027-.042.029-.04.031-.039.032-.038.034-.036.036-.035.037-.033.038-.031.04-.029.041-.028.042-.026.044-.024.044-.022.046-.02.046-.019.047-.016.047-.014.048-.011.049-.01.049-.008.049-.005.05-.003.05-.001.049.001Z"/>
  <path d="m72.768 55.377.088.012.086.019.084.025.082.032.079.038.077.044.072.05.068.056.064.061.06.062.059.06.059.06.059.06.059.059.06.059.058.058.06.058.059.057.059.057.06.057.059.056.059.056.06.055.06.055.059.054.06.054.059.054.06.053.06.053.059.052.06.052.06.052.06.051.06.05.06.05.059.05.06.05.061.049.06.048.06.048.06.048.06.047.06.047.06.046.061.046.06.046.06.045.061.045.06.044.06.044.061.044.06.043.061.042.06.043.061.041.061.042.06.041.061.041.061.04.061.04.061.039.06.039.061.038.061.039.061.037.061.038.061.037.061.036.061.036.061.036.061.035.061.035.061.034.062.035.061.033.061.033.061.033.062.033.061.032.061.031.062.032.061.03.062.031.061.03.062.029.061.03.062.028.062.029.061.028.062.028.062.027.062.027.062.026.061.026.062.026.062.025.062.025.062.024.062.024.062.024.062.023.062.023.063.023.062.022.062.021.063.022.062.021.062.02.063.02.062.02.062.019.063.019.063.019.062.018.063.018.062.017.063.018.063.016.063.016.063.016.063.016.063.015.063.015.063.014.063.014.063.014.063.013.063.013.063.012.064.012.063.012.064.011.063.011.064.01.063.01.064.01.064.01.063.008.064.009.064.008.064.008.064.008.064.007.064.006.064.007.065.005.064.006.064.005.065.005.064.004.065.004.064.004.065.003.064.003.065.003.065.002.065.001.065.002.065.001h.261l.065-.001.066-.002.065-.001.066-.003.065-.002.066-.003.066-.003.066-.004.066-.004.066-.004.066-.005.066-.006.066-.005.067-.006.066-.006.067-.007.066-.007.067-.008.066-.008.067-.008.067-.009.067-.009.067-.009.067-.01.067-.011.068-.01.067-.011.067-.012.068-.012.067-.012.068-.012.068-.013.068-.014.068-.014.067-.014.069-.015.068-.015.068-.015.068-.016.069-.016.068-.016.069-.017.068-.018.069-.018.069-.018.069-.018.069-.019.069-.02.069-.02.069-.02.07-.02.069-.021.07-.022.069-.022.07-.022.069-.022.07-.023.07-.024.07-.024.07-.024.07-.024.071-.025.07-.026.07-.026.071-.026.071-.027.07-.027.071-.027.071-.028.071-.028.071-.029.071-.029.071-.03.071-.03.071-.03.072-.031.071-.031.072-.032.072-.032.071-.032.072-.033.072-.033.072-.034.072-.034.072-.034.072-.035.073-.036.072-.035.072-.037.073-.036.073-.037.072-.038.073-.037.073-.039.073-.038.073-.039.073-.04.073-.04.074-.04.073-.041.073-.041.076-.043.078-.04.081-.034.084-.028.086-.021.086-.014.088-.007h.088l.088.006.087.014.086.02.084.027.081.033.079.04.075.045.071.052.067.057.063.062.057.066.053.071.046.075.04.078.034.082.028.083.021.086.014.087.007.087v.088l-.006.088-.014.087-.02.086-.027.084-.033.081-.04.079-.045.075-.052.072-.057.067-.062.062-.066.058-.071.052-.075.046-.079.045-.081.045-.081.045-.081.045-.081.044-.081.044-.081.043-.081.043-.081.042-.081.042-.081.042-.08.041-.081.041-.081.04-.081.04-.08.039-.081.04-.081.038-.081.038-.08.038-.081.037-.081.037-.08.037-.081.036-.081.035-.08.035-.081.035-.08.035-.081.033-.08.034-.081.033-.08.032-.081.032-.08.032-.08.031-.081.031-.08.031-.081.029-.08.03-.08.029-.081.029-.08.028-.08.028-.081.027-.08.027-.08.026-.08.026-.08.026-.08.025-.08.024-.081.025-.08.023-.08.024-.08.023-.08.022-.08.022-.08.022-.08.021-.08.021-.079.02-.08.02-.08.019-.08.019-.08.018-.08.018-.079.018-.08.017-.08.017-.079.016-.08.015-.08.016-.079.015-.08.014-.079.014-.08.013-.079.014-.08.012-.079.012-.08.012-.079.011-.079.011-.079.01-.08.01-.079.01-.079.009-.079.008-.079.008-.079.008-.079.007-.079.007-.079.006-.079.005-.079.006-.079.005-.079.004-.079.004-.078.003-.079.003-.079.003-.078.002-.079.002-.078.001-.079.001h-.157l-.078-.001-.078-.001-.078-.002-.079-.002-.078-.002-.078-.003-.078-.004-.078-.004-.078-.004-.078-.005-.077-.005-.078-.006-.078-.006-.078-.007-.077-.007-.078-.008-.077-.008-.077-.008-.078-.009-.077-.01-.077-.01-.077-.01-.078-.011-.076-.011-.077-.012-.077-.012-.077-.013-.077-.013-.077-.014-.076-.014-.077-.014-.076-.015-.077-.016-.076-.016-.076-.016-.076-.017-.076-.017-.076-.018-.076-.018-.076-.019-.076-.019-.076-.02-.075-.02-.076-.02-.075-.021-.076-.022-.075-.022-.075-.022-.075-.023-.075-.023-.075-.024-.075-.024-.075-.024-.074-.026-.075-.025-.075-.026-.074-.026-.074-.027-.075-.028-.074-.027-.074-.029-.074-.028-.074-.03-.074-.029-.073-.03-.074-.031-.073-.031-.074-.031-.073-.032-.073-.032-.073-.033-.073-.033-.073-.034-.073-.034-.073-.034-.073-.035-.072-.036-.073-.036-.072-.036-.072-.036-.072-.038-.072-.037-.072-.038-.072-.039-.072-.039-.072-.039-.071-.04-.072-.04-.071-.041-.071-.041-.071-.042-.071-.042-.071-.042-.071-.043-.071-.043-.071-.044-.07-.044-.07-.045-.071-.045-.07-.045-.07-.046-.07-.047-.07-.046-.07-.047-.069-.048-.07-.048-.07-.049-.069-.049-.069-.049-.07-.05-.069-.05-.069-.051-.068-.051-.069-.051-.069-.052-.068-.052-.069-.053-.068-.054-.069-.053-.068-.054-.068-.055-.068-.055-.068-.055-.067-.055-.068-.057-.067-.056-.068-.057-.067-.058-.068-.058-.067-.058-.067-.059-.067-.059-.066-.059-.067-.06-.067-.061-.066-.061-.067-.061-.066-.061-.066-.062-.066-.063-.066-.063-.066-.063-.066-.064-.065-.064-.066-.065-.066-.065-.065-.065-.065-.066-.066-.066-.065-.067-.063-.065-.059-.066-.053-.07-.048-.074-.042-.077-.035-.081-.029-.083-.023-.085-.016-.087-.009-.087-.002-.088.005-.088.012-.088.019-.086.025-.084.032-.082.038-.079.044-.077.05-.072.056-.068.06-.064.066-.059.07-.053.074-.048.078-.041.08-.036.083-.029.085-.023.087-.015.087-.009.088-.002.088.004Z"/>
  <path fill="#b7f8ff" d="M94.429 19.139c-1.303-.395-2.527-.167-2.731.508-.205.676.686 1.545 1.989 1.939 1.303.395 2.526.167 2.731-.508.205-.676-.687-1.544-1.989-1.939ZM46.908 24.908c-.875 1.043-1.147 2.257-.607 2.711.541.454 1.69-.024 2.565-1.066.876-1.042 1.148-2.257.607-2.711-.54-.454-1.69.024-2.565 1.066Z"/>
  <path fill="#fff" stroke="#000" stroke-width="2.24" d="M103.243 23.661c-6.939-.988-13.376 3.844-14.364 10.783-.989 6.94 3.843 13.377 10.783 14.365 6.94.988 13.376-3.843 14.365-10.783.988-6.94-3.844-13.377-10.784-14.365ZM58.479 27.38c-6.94-.988-13.376 3.844-14.364 10.784-.989 6.94 3.843 13.376 10.783 14.364 6.94.989 13.376-3.843 14.364-10.783.989-6.94-3.843-13.376-10.783-14.365Z"/>
  <path d="M100.595 34.439a4.513 4.513 0 0 0-5.102 3.83 4.512 4.512 0 1 0 5.102-3.83ZM56.451 37.616a4.513 4.513 0 0 0-5.102 3.83 4.513 4.513 0 0 0 3.83 5.102 4.513 4.513 0 0 0 5.102-3.83 4.513 4.513 0 0 0-3.83-5.102Z"/>
  <path fill="#fff" d="M100.969 36.319a1.267 1.267 0 1 0-.356 2.507 1.267 1.267 0 0 0 .356-2.507ZM56.825 39.496a1.266 1.266 0 1 0-.357 2.506 1.266 1.266 0 0 0 .357-2.506Z"/>
  <path fill="#d6c295" stroke="#000" stroke-width="2.24" d="M63.033 98.071S59.421 87.54 52.897 85.95c-6.524-1.589-9.164 3.587-5.007 6.587 4.158 3 7.805 6.181 8.222 10.276.417 4.094 9.265 1.881 6.921-4.742Z"/>
</svg>